<?xml version="1.0" encoding="utf-8"?>
<!-- Generator: Adobe Illustrator 25.2.0, SVG Export Plug-In . SVG Version: 6.00 Build 0)  -->
<svg version="1.1" id="Layer_1" xmlns="http://www.w3.org/2000/svg" xmlns:xlink="http://www.w3.org/1999/xlink" x="0px" y="0px"
	 viewBox="0 0 937.5 937.5" style="enable-background:new 0 0 937.5 937.5;" xml:space="preserve">
<style type="text/css">
	.st0{fill:#0F273E;}
	.st1{fill:#EF4444;}
	.st2{fill:#FAB14E;}
	.st3{fill:#FFFFFF;}
	.st4{fill:#264452;}
	.st5{clip-path:url(#SVGID_1_);fill:#264452;}
	.st6{clip-path:url(#SVGID_1_);fill:#FFFFFF;}
	.st7{clip-path:url(#SVGID_1_);}
	.st8{clip-path:url(#SVGID_2_);}
	.st9{clip-path:url(#SVGID_2_);fill:#EF4444;}
</style>
<g>
	<circle class="st0" cx="468.8" cy="468.8" r="468.8"/>
	<circle class="st1" cx="468.8" cy="468.8" r="327.2"/>
	<circle class="st2" cx="468.8" cy="468.8" r="294.7"/>
	<path class="st1" d="M468.8,919.2c-60.8,0-119.8-11.9-175.3-35.4c-53.6-22.7-101.8-55.2-143.2-96.5
		c-41.4-41.4-73.8-89.5-96.5-143.2c-23.5-55.5-35.4-114.5-35.4-175.3c0-60.8,11.9-119.8,35.4-175.3c22.7-53.6,55.2-101.8,96.5-143.2
		s89.5-73.8,143.2-96.5C349,30.2,407.9,18.3,468.8,18.3s119.8,11.9,175.3,35.4c53.6,22.7,101.8,55.2,143.2,96.5
		c41.4,41.4,73.8,89.5,96.5,143.2c23.5,55.5,35.4,114.5,35.4,175.3c0,60.8-11.9,119.8-35.4,175.3c-22.7,53.6-55.2,101.8-96.5,143.2
		c-41.4,41.4-89.5,73.8-143.2,96.5C588.5,907.3,529.6,919.2,468.8,919.2z M468.8,28.5C226,28.5,28.5,226,28.5,468.8
		S226,909,468.8,909C711.5,909,909,711.5,909,468.8S711.5,28.5,468.8,28.5z"/>
	<g>
		<path class="st2" d="M101.3,596.1c-0.5-1.5-0.4-3,0.4-4.4c0.7-1.4,1.9-2.4,3.5-2.9l3.4-1.1l-2.1-6.5l-3.4,1.1
			c-1.6,0.5-3.1,0.4-4.5-0.3c-1.4-0.7-2.4-1.8-2.9-3.3c-0.5-1.5-0.4-3,0.4-4.4c0.7-1.4,1.9-2.4,3.5-2.9l18-5.9
			c1.6-0.5,3.1-0.4,4.5,0.3c1.4,0.7,2.4,1.8,2.9,3.3l5.7,17.4c0.5,1.5,0.4,3-0.4,4.4c-0.7,1.4-1.9,2.4-3.5,2.9l-18,5.9
			c-1.6,0.5-3.1,0.4-4.5-0.3C102.7,598.7,101.8,597.6,101.3,596.1z M108,597.5l18-5.9c0.9-0.3,1.6-0.9,2.1-1.7
			c0.4-0.9,0.5-1.7,0.2-2.6l-5.7-17.4c-0.3-0.9-0.9-1.6-1.7-2c-0.9-0.4-1.8-0.5-2.7-0.2l-18,5.9c-0.9,0.3-1.6,0.9-2.1,1.7
			c-0.4,0.9-0.5,1.7-0.2,2.6c0.3,0.9,0.9,1.6,1.7,2c0.9,0.4,1.8,0.5,2.7,0.2l5.6-1.8l3.6,10.9l-5.6,1.8c-0.9,0.3-1.6,0.9-2.1,1.7
			c-0.4,0.9-0.5,1.7-0.2,2.6c0.3,0.9,0.9,1.6,1.7,2C106.1,597.7,107,597.8,108,597.5z M118.2,586.9l-3.6-10.9l2.2-0.7l3.6,10.9
			L118.2,586.9z"/>
		<path class="st2" d="M121.3,630.4c-1.5,0.6-3,0.7-4.5,0.1c-1.5-0.6-2.5-1.6-3.2-3.1l-7.1-16.9c-0.6-1.5-0.6-2.9,0-4.4
			c0.6-1.5,1.7-2.5,3.2-3.2c1.8-0.8,3.5-0.7,5.2,0.3c0.5-1.9,1.7-3.2,3.5-3.9l8.7-3.7c1.5-0.6,3-0.7,4.5-0.1
			c1.5,0.6,2.5,1.6,3.2,3.1l7.1,16.9c0.6,1.5,0.6,2.9,0,4.4c-0.6,1.5-1.7,2.5-3.2,3.2c-1.8,0.8-3.6,0.7-5.2-0.3
			c-0.5,1.9-1.6,3.2-3.5,3.9L121.3,630.4z M120.5,628.3l8.7-3.7c0.9-0.4,1.5-1,1.9-1.9c0.4-0.9,0.4-1.8,0-2.6l-5.8-13.7l2.2-0.9
			l5.8,13.7c0.4,0.9,1,1.5,1.9,1.8c0.9,0.3,1.8,0.3,2.7,0c0.9-0.4,1.5-1,1.9-1.9c0.4-0.9,0.4-1.8,0-2.6l-7.1-16.9
			c-0.4-0.9-1-1.5-1.9-1.8c-0.9-0.4-1.8-0.3-2.7,0l-8.7,3.7c-0.9,0.4-1.5,1-1.9,1.9c-0.4,0.9-0.4,1.8,0,2.6l5.8,13.7l-2.2,0.9
			l-5.8-13.7c-0.4-0.9-1-1.5-1.9-1.8c-0.9-0.4-1.8-0.3-2.7,0c-0.9,0.4-1.5,1-1.9,1.9c-0.4,0.9-0.4,1.8,0,2.6l7.1,16.9
			c0.4,0.9,1,1.5,1.9,1.8C118.7,628.7,119.6,628.7,120.5,628.3z"/>
		<path class="st2" d="M136.5,660c-1.5,0.8-2.9,0.9-4.5,0.4c-1.5-0.5-2.7-1.4-3.4-2.8l-8.5-16.2c-0.7-1.4-0.8-2.9-0.3-4.4
			c0.5-1.5,1.5-2.7,2.9-3.4l16.8-8.7c1.5-0.8,2.9-0.9,4.5-0.4c1.5,0.5,2.7,1.4,3.4,2.8c0.6,1.2,0.8,2.5,0.5,3.9
			c-0.3,1.4-1,2.5-2.1,3.4l1.6,3.1c0.7,1.4,0.8,2.8,0.3,4.4c-0.5,1.5-1.5,2.6-2.9,3.4c-1.5,0.8-2.9,0.9-4.5,0.4
			c-1.5-0.5-2.7-1.4-3.4-2.8l-1.6-3l-2.1,1.1l5.8,11.2c0.7,1.4,0.8,2.9,0.3,4.4C138.9,658.1,137.9,659.2,136.5,660z M135.4,657.9
			c0.9-0.5,1.5-1.1,1.8-2c0.3-0.9,0.2-1.8-0.2-2.6l-6.9-13.2l6.3-3.3l2.6,5.1c0.4,0.8,1.1,1.4,2,1.7c0.9,0.3,1.8,0.2,2.7-0.3
			c0.9-0.5,1.5-1.1,1.8-2c0.3-0.9,0.2-1.8-0.2-2.6l-2.6-5.1l1-0.5c0.9-0.5,1.5-1.1,1.8-2c0.3-0.9,0.2-1.8-0.2-2.6
			c-0.4-0.8-1.1-1.4-2-1.7c-0.9-0.3-1.8-0.2-2.7,0.3l-16.8,8.7c-0.9,0.5-1.5,1.1-1.8,2c-0.3,0.9-0.2,1.8,0.2,2.6l8.5,16.2
			c0.4,0.8,1.1,1.4,2,1.7C133.7,658.5,134.6,658.4,135.4,657.9z"/>
		<path class="st2" d="M158.5,652.1c1.6,0.3,2.8,1.2,3.6,2.5l9.8,15.5c0.8,1.3,1.1,2.8,0.7,4.3c-0.4,1.6-1.3,2.8-2.6,3.6
			c-1.4,0.9-2.9,1.1-4.4,0.8c-1.6-0.3-2.8-1.2-3.6-2.5l-6.7-10.7l-11,6.9c-1.4,0.9-2.9,1.1-4.4,0.8c-1.6-0.3-2.8-1.2-3.6-2.5
			c-0.8-1.3-1.1-2.8-0.7-4.3c0.4-1.6,1.3-2.8,2.6-3.6l16-10.1C155.5,652.1,157,651.8,158.5,652.1z M139.3,665
			c-0.8,0.5-1.4,1.2-1.6,2.2c-0.2,0.9-0.1,1.8,0.4,2.6s1.2,1.3,2.2,1.5c0.9,0.2,1.8,0,2.7-0.5l13-8.2l7.9,12.6
			c0.5,0.8,1.2,1.3,2.2,1.5c0.9,0.2,1.8,0,2.7-0.5c0.8-0.5,1.4-1.2,1.6-2.2c0.2-0.9,0.1-1.8-0.4-2.6l-9.8-15.5
			c-0.5-0.8-1.2-1.3-2.2-1.5c-0.9-0.2-1.8,0-2.7,0.5L139.3,665z"/>
		<path class="st2" d="M163.4,685.5c1.6-1.2,3.3-1.5,5.2-1c0-1.9,0.8-3.5,2.4-4.7c1.3-1,2.8-1.4,4.3-1.2c1.6,0.2,2.9,0.9,3.8,2.2
			l11,14.7c1,1.3,1.3,2.7,1.1,4.3c-0.3,1.6-1,2.9-2.3,3.8l-15.1,11.3c-1.3,1-2.8,1.4-4.3,1.2c-1.6-0.2-2.9-0.9-3.8-2.2l-11-14.7
			c-1-1.3-1.3-2.7-1.1-4.3c0.3-1.6,1-2.9,2.3-3.8L163.4,685.5z M155.8,695.3c-0.2,1,0.1,1.8,0.6,2.6l11,14.7
			c0.6,0.8,1.3,1.2,2.3,1.3c1,0.1,1.8-0.1,2.6-0.7l15.1-11.3c0.8-0.6,1.2-1.4,1.4-2.3c0.2-1-0.1-1.8-0.6-2.6l-11-14.7
			c-0.6-0.8-1.3-1.2-2.3-1.3c-1-0.1-1.8,0.1-2.6,0.7c-0.8,0.6-1.2,1.4-1.4,2.3c-0.2,1,0.1,1.8,0.6,2.6l8.9,11.9l-1.9,1.4l-8.9-11.9
			c-0.6-0.8-1.3-1.2-2.3-1.3c-1-0.1-1.8,0.1-2.6,0.7l-7.6,5.7C156.5,693.6,156,694.3,155.8,695.3z M166.1,694.9l6.9,9.2l-1.9,1.4
			l-6.9-9.2L166.1,694.9z"/>
		<path class="st2" d="M191.1,743.4c-1.1-1.1-1.6-2.5-1.5-4.1c0.1-1.6,0.7-3,1.9-4.1l13.7-13c1.2-1.1,2.6-1.7,4.2-1.7
			c1.6,0,2.9,0.6,4,1.7c1.1,1.1,1.6,2.5,1.5,4.1c-0.1,1.6-0.7,3-1.9,4.1l-13.7,13c-1.2,1.1-2.6,1.7-4.2,1.7
			C193.5,745.2,192.2,744.6,191.1,743.4z M197.7,741.8l13.7-13c0.7-0.7,1.1-1.5,1.1-2.5c0-1-0.3-1.8-0.9-2.5c-0.7-0.7-1.5-1-2.4-1
			c-1,0-1.8,0.3-2.5,1l-13.7,13c-0.7,0.7-1.1,1.5-1.1,2.5c0,1,0.3,1.8,0.9,2.5c0.7,0.7,1.5,1,2.4,1
			C196.2,742.8,197,742.5,197.7,741.8z"/>
		<path class="st2" d="M214.9,766.6c-1.2-1.1-1.8-2.4-1.8-4c0-1.6,0.5-3,1.6-4.2l8.9-9.5l-5-4.7l-8.9,9.5c-1.1,1.2-2.5,1.8-4.1,1.9
			c-1.6,0.1-3-0.4-4.1-1.5s-1.8-2.4-1.8-4c0-1.6,0.5-3,1.6-4.2l12.9-13.8c1.1-1.2,2.5-1.8,4.1-1.9c1.6-0.1,3,0.4,4.1,1.5l13.4,12.5
			c1.2,1.1,1.8,2.4,1.8,4c0,1.6-0.5,3-1.6,4.2l-12.9,13.8c-1.1,1.2-2.5,1.8-4.1,1.9C217.4,768.2,216,767.7,214.9,766.6z
			 M221.4,764.7l12.9-13.8c0.7-0.7,1-1.6,1-2.5c0-1-0.4-1.8-1.1-2.4l-13.4-12.5c-0.7-0.6-1.5-0.9-2.5-0.9c-1,0-1.8,0.4-2.4,1.1
			L203,747.5c-0.7,0.7-1,1.6-1,2.5c0,1,0.4,1.8,1.1,2.4c0.7,0.6,1.5,0.9,2.5,0.9c1,0,1.8-0.4,2.4-1.1l10.5-11.2l8.4,7.8L216.4,760
			c-0.7,0.7-1,1.6-1,2.5c0,1,0.4,1.8,1.1,2.4c0.7,0.6,1.5,0.9,2.5,0.9C219.9,765.8,220.8,765.4,221.4,764.7z"/>
		<path class="st2" d="M241,788.1l-14.4-11.3c-1.2-1-2-2.3-2.1-3.9c-0.2-1.6,0.3-3,1.3-4.3l11.7-14.9c1-1.3,2.3-2,3.9-2.3
			c1.6-0.2,3,0.2,4.3,1.1l14.4,11.3c1.2,1,2,2.3,2.1,3.9c0.2,1.6-0.3,3-1.3,4.3c-1,1.3-2.3,2-3.9,2.3c-1.6,0.2-3-0.2-4.3-1.1
			l-9.9-7.8l-4.4,5.6l9.9,7.8c1.2,1,2,2.3,2.1,3.9c0.2,1.6-0.3,3-1.3,4.3c-1,1.3-2.3,2-3.9,2.3C243.6,789.4,242.2,789,241,788.1z
			 M247.3,785.5c0.6-0.8,0.9-1.6,0.8-2.6c-0.1-1-0.5-1.7-1.3-2.3l-11.7-9.2l7.3-9.3l11.7,9.2c0.7,0.6,1.6,0.8,2.6,0.7
			c1-0.1,1.7-0.6,2.3-1.3c0.6-0.8,0.9-1.6,0.8-2.6c-0.1-1-0.5-1.7-1.3-2.3l-14.4-11.3c-0.7-0.6-1.6-0.8-2.6-0.7
			c-1,0.1-1.7,0.6-2.3,1.3L227.5,770c-0.6,0.8-0.9,1.6-0.8,2.6c0.1,1,0.5,1.7,1.3,2.3l14.4,11.3c0.7,0.6,1.6,0.8,2.6,0.7
			C245.9,786.8,246.7,786.3,247.3,785.5z"/>
		<path class="st2" d="M251.9,789.1l10.4-15.8c0.9-1.4,2.1-2.2,3.7-2.6c1.6-0.3,3-0.1,4.3,0.8c1.3,0.9,2.1,2.1,2.4,3.7
			c0.3,1.6,0,3-0.9,4.4l-7.1,10.9l10.5,6.9c1.3,0.9,2.1,2.1,2.4,3.7c0.3,1.6,0,3-0.9,4.4c-0.9,1.4-2.1,2.2-3.7,2.6
			c-1.6,0.3-3,0.1-4.3-0.8l-15.3-10.1c-1.3-0.9-2.1-2.1-2.4-3.7C250.7,791.9,251,790.5,251.9,789.1z M253.9,790.4
			c-0.5,0.8-0.7,1.7-0.5,2.6c0.2,0.9,0.7,1.7,1.5,2.2l15.3,10.1c0.8,0.5,1.7,0.7,2.6,0.5c0.9-0.2,1.7-0.7,2.2-1.5
			c0.5-0.8,0.7-1.7,0.5-2.6c-0.2-0.9-0.7-1.7-1.5-2.2l-12.4-8.2l8.4-12.8c0.5-0.8,0.7-1.7,0.5-2.6c-0.2-0.9-0.7-1.7-1.5-2.2
			c-0.8-0.5-1.7-0.7-2.6-0.5c-0.9,0.2-1.7,0.7-2.2,1.5L253.9,790.4z"/>
		<path class="st2" d="M299.6,791.7c0.4,1.6,0.2,3-0.6,4.5c-1,1.7-2.4,2.7-4.3,3c0.7,1.8,0.6,3.5-0.4,5.2l-4.7,8.2
			c-0.8,1.4-2,2.4-3.5,2.8c-1.5,0.4-3,0.3-4.4-0.5c-1.4-0.8-2.3-2-2.7-3.5c-0.4-1.6-0.2-3,0.6-4.5l4.7-8.2c1-1.7,2.4-2.7,4.3-3
			c-0.7-1.8-0.6-3.5,0.4-5.2c0.8-1.4,2-2.4,3.5-2.8c1.5-0.4,3-0.3,4.4,0.5C298.3,789,299.2,790.2,299.6,791.7z M292.6,800.6
			c-0.2-0.9-0.8-1.6-1.6-2.1c-0.8-0.5-1.7-0.6-2.6-0.3c-0.9,0.3-1.6,0.8-2.1,1.7l-4.7,8.2c-0.5,0.8-0.6,1.7-0.4,2.7
			c0.2,0.9,0.8,1.6,1.6,2.1c0.8,0.5,1.7,0.6,2.6,0.3c0.9-0.3,1.6-0.8,2.1-1.7l4.7-8.2C292.7,802.4,292.9,801.5,292.6,800.6z
			 M297.3,792.4c-0.2-0.9-0.8-1.6-1.6-2.1c-0.8-0.5-1.7-0.6-2.6-0.3c-0.9,0.3-1.6,0.8-2.1,1.7c-0.5,0.8-0.6,1.7-0.4,2.7
			c0.2,0.9,0.8,1.6,1.6,2.1c0.8,0.5,1.7,0.6,2.6,0.3c0.9-0.3,1.6-0.8,2.1-1.7C297.4,794.2,297.6,793.3,297.3,792.4z"/>
		<path class="st2" d="M311.2,830.3c-1.4-0.7-2.4-1.8-2.9-3.3c-0.5-1.5-0.4-3,0.3-4.5l5.7-11.7l-6.2-3l-5.7,11.7
			c-0.7,1.5-1.8,2.5-3.3,3c-1.5,0.5-3,0.5-4.4-0.2c-1.4-0.7-2.4-1.8-2.9-3.3c-0.5-1.5-0.4-3,0.3-4.5l8.4-17c0.7-1.5,1.8-2.5,3.3-3
			c1.5-0.5,3-0.5,4.4,0.2l16.4,8.1c1.4,0.7,2.4,1.8,2.9,3.3c0.5,1.5,0.4,3-0.3,4.5l-8.4,17c-0.7,1.5-1.8,2.5-3.3,3
			C314.1,831.1,312.6,831,311.2,830.3z M316.9,826.5l8.4-17c0.4-0.9,0.5-1.8,0.2-2.7c-0.3-0.9-0.9-1.6-1.7-2l-16.4-8.1
			c-0.8-0.4-1.7-0.5-2.6-0.1c-0.9,0.3-1.6,0.9-2,1.8l-8.4,17c-0.4,0.9-0.5,1.8-0.2,2.7c0.3,0.9,0.9,1.6,1.7,2
			c0.8,0.4,1.7,0.5,2.6,0.1c0.9-0.3,1.6-0.9,2-1.8l6.8-13.8l10.3,5.1l-6.8,13.8c-0.4,0.9-0.5,1.8-0.2,2.7c0.3,0.9,0.9,1.6,1.7,2
			c0.8,0.4,1.7,0.5,2.6,0.1C315.8,828,316.4,827.4,316.9,826.5z"/>
		<path class="st2" d="M325.5,820.3c0.7-1.8,2-3,3.8-3.6c-1-1.6-1.1-3.4-0.4-5.2c0.6-1.5,1.6-2.6,3.1-3.3c1.5-0.7,2.9-0.7,4.4-0.1
			l17.1,6.6c1.5,0.6,2.5,1.6,3.2,3.1c0.6,1.5,0.6,3,0,4.5l-6.8,17.6c-0.6,1.5-1.6,2.6-3.1,3.3c-1.5,0.7-2.9,0.7-4.4,0.1l-17.1-6.6
			c-1.5-0.6-2.5-1.6-3.2-3.1c-0.6-1.5-0.6-3,0-4.5L325.5,820.3z M324.3,832.6c0.4,0.9,1,1.5,1.9,1.8l17.1,6.6
			c0.9,0.3,1.8,0.3,2.6-0.1c0.9-0.4,1.5-1.1,1.8-2l6.8-17.6c0.4-0.9,0.3-1.8,0-2.7c-0.4-0.9-1-1.5-1.9-1.8l-17.1-6.6
			c-0.9-0.3-1.8-0.3-2.6,0.1c-0.9,0.4-1.5,1.1-1.8,2c-0.4,0.9-0.3,1.8,0,2.7c0.4,0.9,1,1.5,1.9,1.8l13.9,5.4l-0.9,2.2l-13.9-5.4
			c-0.9-0.3-1.8-0.3-2.6,0.1c-0.9,0.4-1.5,1.1-1.8,2l-3.4,8.8C323.9,830.8,323.9,831.7,324.3,832.6z M332.8,826.9l10.7,4.1l-0.9,2.2
			l-10.7-4.1L332.8,826.9z"/>
		<path class="st2" d="M374.6,853.5c-1.5-0.4-2.7-1.4-3.4-2.8c-0.7-1.4-0.9-2.9-0.4-4.5l3.6-12.5l-6.6-1.9l-3.6,12.5
			c-0.5,1.6-1.4,2.8-2.8,3.5c-1.4,0.8-2.8,1-4.4,0.5s-2.7-1.4-3.4-2.8c-0.7-1.4-0.9-2.9-0.4-4.5l5.3-18.1c0.5-1.6,1.4-2.8,2.8-3.5
			c1.4-0.8,2.8-1,4.4-0.5l17.6,5.1c1.5,0.4,2.7,1.4,3.4,2.8c0.7,1.4,0.9,2.9,0.4,4.5l-5.3,18.1c-0.5,1.6-1.4,2.8-2.8,3.5
			C377.6,853.8,376.2,853.9,374.6,853.5z M379.6,848.8l5.3-18.1c0.3-0.9,0.2-1.8-0.3-2.7c-0.5-0.9-1.1-1.4-2-1.7l-17.6-5.1
			c-0.9-0.3-1.8-0.2-2.6,0.3c-0.8,0.5-1.4,1.2-1.7,2.1l-5.3,18.1c-0.3,0.9-0.2,1.8,0.3,2.7c0.5,0.9,1.1,1.4,2,1.7
			c0.9,0.3,1.8,0.2,2.6-0.3c0.8-0.5,1.4-1.2,1.7-2.1l4.3-14.7l11,3.2l-4.3,14.7c-0.3,0.9-0.2,1.8,0.3,2.7c0.5,0.9,1.1,1.4,2,1.7
			s1.8,0.2,2.6-0.3C378.8,850.4,379.3,849.7,379.6,848.8z"/>
		<path class="st2" d="M414.4,856.1c-0.3,1.6-1.1,2.9-2.5,3.8c-1.3,0.9-2.8,1.2-4.3,0.9l-18-3.6c-1.6-0.3-2.8-1.1-3.6-2.5
			c-0.9-1.3-1.1-2.8-0.8-4.4l3.7-18.5c0.3-1.6,1.1-2.9,2.5-3.8c1.3-0.9,2.8-1.2,4.3-0.9c1.3,0.3,2.4,0.9,3.3,2
			c0.9,1.1,1.3,2.3,1.3,3.7l3.4,0.7c1.5,0.3,2.7,1.1,3.6,2.5c0.9,1.3,1.1,2.8,0.8,4.4c-0.3,1.6-1.1,2.9-2.5,3.8
			c-1.3,0.9-2.8,1.2-4.3,0.9l-3.4-0.7l-0.5,2.3l12.4,2.4c1.6,0.3,2.8,1.1,3.6,2.5C414.5,853,414.7,854.5,414.4,856.1z M412.2,855.7
			c0.2-1,0-1.8-0.5-2.7c-0.5-0.8-1.3-1.3-2.2-1.5l-14.6-2.9l1.4-7l5.6,1.1c0.9,0.2,1.8,0,2.6-0.5c0.8-0.5,1.3-1.3,1.5-2.3
			c0.2-1,0-1.8-0.5-2.7c-0.5-0.8-1.3-1.3-2.2-1.5l-5.6-1.1l0.2-1.2c0.2-1,0-1.8-0.5-2.7c-0.5-0.8-1.3-1.3-2.2-1.5
			c-0.9-0.2-1.8,0-2.6,0.5c-0.8,0.5-1.3,1.3-1.5,2.3l-3.7,18.5c-0.2,1,0,1.8,0.5,2.7c0.5,0.8,1.3,1.3,2.2,1.5l18,3.6
			c0.9,0.2,1.8,0,2.6-0.5C411.5,857.4,412,856.6,412.2,855.7z"/>
		<path class="st2" d="M421.9,867.7c-1.6-0.2-2.8-1-3.8-2.2c-1-1.3-1.3-2.7-1.1-4.4l0.6-4.7c0.2-1.6,1-2.9,2.2-3.9
			c1.3-1,2.7-1.4,4.2-1.2c1.6,0.2,2.8,1,3.8,2.2c1,1.3,1.3,2.7,1.1,4.4l-0.6,4.7c-0.2,1.6-1,2.9-2.2,3.9
			C424.9,867.5,423.5,867.9,421.9,867.7z M426.1,862.3l0.6-4.7c0.1-1-0.1-1.8-0.7-2.6c-0.6-0.8-1.3-1.2-2.3-1.4
			c-0.9-0.1-1.8,0.1-2.5,0.7c-0.8,0.6-1.2,1.4-1.3,2.3l-0.6,4.7c-0.1,1,0.1,1.8,0.7,2.6c0.6,0.8,1.3,1.2,2.3,1.4
			c0.9,0.1,1.8-0.1,2.5-0.7C425.5,864.1,425.9,863.3,426.1,862.3z"/>
		<path class="st2" d="M485.4,860.9c0,1.6-0.6,3-1.7,4.2c-1.1,1.1-2.5,1.7-4.1,1.7l-18.3-0.3c-1.6,0-2.9-0.6-4-1.8
			c-1.1-1.2-1.6-2.6-1.6-4.2c0-2,0.8-3.5,2.4-4.7c-1.5-1.2-2.2-2.8-2.2-4.8l0.2-9.4c0-1.6,0.6-3,1.7-4.2c1.1-1.1,2.5-1.7,4.1-1.7
			l18.3,0.3c1.6,0,2.9,0.6,4,1.8c1.1,1.2,1.6,2.6,1.6,4.2c0,2-0.8,3.5-2.4,4.7c1.5,1.2,2.2,2.8,2.2,4.8L485.4,860.9z M483.1,860.8
			l0.2-9.4c0-1-0.3-1.8-1-2.5c-0.7-0.7-1.5-1.1-2.4-1.1l-14.9-0.2l0-2.4l14.9,0.2c0.9,0,1.8-0.3,2.4-1c0.7-0.7,1-1.5,1-2.5
			c0-1-0.3-1.8-1-2.5c-0.7-0.7-1.5-1.1-2.4-1.1l-18.3-0.3c-0.9,0-1.8,0.3-2.4,1c-0.7,0.7-1,1.5-1,2.5l-0.2,9.4c0,1,0.3,1.8,1,2.5
			c0.7,0.7,1.5,1.1,2.4,1.1l14.9,0.2l0,2.4l-14.9-0.2c-0.9,0-1.8,0.3-2.4,1c-0.7,0.7-1,1.5-1,2.5c0,1,0.3,1.8,1,2.5
			c0.7,0.7,1.5,1.1,2.4,1.1l18.3,0.3c0.9,0,1.8-0.3,2.4-1C482.8,862.6,483.1,861.8,483.1,860.8z"/>
		<path class="st2" d="M518.8,858.4c0.1,1.6-0.3,3.1-1.3,4.3c-1,1.2-2.3,1.9-3.9,2l-18.3,1.4c-1.6,0.1-3-0.3-4.2-1.4
			c-1.2-1.1-1.9-2.4-2-4l-0.7-9.4c-0.2-2,0.5-3.6,1.9-4.9c-1.6-1.1-2.5-2.6-2.7-4.5c-0.1-1.6,0.3-3.1,1.3-4.3c1-1.2,2.3-1.9,3.9-2
			l18.3-1.4c1.6-0.1,3,0.3,4.2,1.4c1.2,1.1,1.9,2.4,2,4c0.2,1.9-0.5,3.6-1.9,4.9c1.6,1,2.5,2.6,2.7,4.5c0.2,1.9-0.5,3.6-1.9,4.9
			C517.7,854.9,518.6,856.4,518.8,858.4z M515,839.7c-0.1-1-0.5-1.8-1.2-2.4c-0.7-0.6-1.6-0.9-2.5-0.8l-18.3,1.4
			c-0.9,0.1-1.7,0.5-2.3,1.2c-0.6,0.7-0.9,1.6-0.8,2.6c0.1,1,0.5,1.8,1.2,2.4c0.7,0.6,1.6,0.9,2.5,0.8l18.3-1.4
			c0.9-0.1,1.7-0.5,2.3-1.2S515.1,840.7,515,839.7z M516.5,858.6c-0.1-1-0.5-1.8-1.2-2.4s-1.6-0.9-2.5-0.8l-14.8,1.2l-0.2-2.4
			l14.8-1.2c0.9-0.1,1.7-0.5,2.3-1.2c0.6-0.7,0.9-1.6,0.8-2.6s-0.5-1.8-1.2-2.4c-0.7-0.6-1.6-0.9-2.5-0.8l-18.3,1.4
			c-0.9,0.1-1.7,0.5-2.3,1.2c-0.6,0.7-0.9,1.6-0.8,2.6l0.7,9.4c0.1,1,0.5,1.8,1.2,2.4c0.7,0.6,1.6,0.9,2.5,0.8l18.3-1.4
			c0.9-0.1,1.7-0.5,2.3-1.2C516.3,860.4,516.6,859.5,516.5,858.6z"/>
		<path class="st2" d="M551.7,853.1c0.3,1.6,0,3.1-1,4.4s-2.1,2.1-3.7,2.4l-23.7,4l-5.1-30.3l23.7-4c1.6-0.3,3,0.1,4.3,1
			c1.3,1,2.1,2.2,2.3,3.8L551.7,853.1z M549.4,853.5l-3.1-18.6c-0.2-1-0.6-1.7-1.4-2.3c-0.8-0.6-1.6-0.8-2.6-0.6l-21.5,3.6l4.3,25.6
			l21.5-3.6c0.9-0.2,1.7-0.6,2.2-1.4C549.4,855.3,549.6,854.5,549.4,853.5z M542.1,851.1l-11.3,1.9l-2-11.6l11.3-1.9L542.1,851.1z
			 M532.6,850.3l6.8-1.1l-1.2-7l-6.8,1.1L532.6,850.3z"/>
		<path class="st2" d="M603,844.9c-1.5,0.5-3,0.4-4.4-0.4c-1.4-0.7-2.4-1.9-2.9-3.5l-4.1-12.3l-6.5,2.1l4.1,12.3
			c0.5,1.6,0.4,3.1-0.3,4.5c-0.7,1.4-1.8,2.4-3.3,2.9s-3,0.4-4.4-0.4c-1.4-0.7-2.4-1.9-2.9-3.5l-5.9-18c-0.5-1.6-0.4-3.1,0.3-4.5
			c0.7-1.4,1.8-2.4,3.3-2.9l17.4-5.7c1.5-0.5,3-0.4,4.4,0.4c1.4,0.7,2.4,1.9,2.9,3.5l5.9,18c0.5,1.6,0.4,3.1-0.3,4.5
			C605.6,843.4,604.5,844.4,603,844.9z M604.4,838.2l-5.9-18c-0.3-0.9-0.9-1.6-1.7-2.1s-1.7-0.5-2.6-0.2l-17.4,5.7
			c-0.9,0.3-1.6,0.9-2,1.7c-0.4,0.9-0.5,1.8-0.2,2.7l5.9,18c0.3,0.9,0.9,1.6,1.7,2.1c0.9,0.4,1.7,0.5,2.6,0.2c0.9-0.3,1.6-0.9,2-1.7
			c0.4-0.9,0.5-1.8,0.2-2.7l-4.8-14.6l10.9-3.6l4.8,14.6c0.3,0.9,0.9,1.6,1.7,2.1c0.9,0.4,1.7,0.5,2.6,0.2c0.9-0.3,1.6-0.9,2-1.7
			C604.6,840,604.7,839.1,604.4,838.2z"/>
		<path class="st2" d="M637.3,824.6c0.6,1.5,0.7,3,0.1,4.5c-0.6,1.5-1.6,2.6-3,3.2l-16.8,7.2c-1.5,0.6-2.9,0.6-4.4,0
			c-1.5-0.6-2.5-1.7-3.2-3.2l-7.4-17.4c-0.6-1.5-0.7-3-0.1-4.5c0.6-1.5,1.6-2.6,3-3.2l16.8-7.2c1.5-0.6,2.9-0.6,4.4,0
			c1.5,0.6,2.5,1.7,3.2,3.2L637.3,824.6z M635.2,825.5l-7.4-17.4c-0.4-0.9-1-1.5-1.9-1.9c-0.9-0.4-1.8-0.4-2.6,0l-16.8,7.2
			c-0.9,0.4-1.5,1-1.8,1.9c-0.3,0.9-0.3,1.8,0.1,2.7l7.4,17.4c0.4,0.9,1,1.5,1.9,1.9c0.9,0.4,1.8,0.4,2.6,0l16.8-7.2
			c0.9-0.4,1.5-1,1.8-1.9C635.6,827.3,635.6,826.4,635.2,825.5z M627.5,824.9l-10.5,4.5l-4.6-10.9l10.5-4.5L627.5,824.9z
			 M624.5,823.6l-2.8-6.5l-6.3,2.7l2.8,6.5L624.5,823.6z"/>
		<path class="st2" d="M664.5,817c-1.4,0.7-2.9,0.9-4.4,0.4c-1.5-0.5-2.7-1.5-3.4-2.9l-6.1-11.5l-6.1,3.2l6.1,11.5
			c0.8,1.4,0.9,2.9,0.5,4.5c-0.4,1.5-1.4,2.7-2.8,3.4c-1.4,0.7-2.9,0.9-4.4,0.4c-1.5-0.5-2.7-1.5-3.4-2.9l-8.9-16.7
			c-0.8-1.4-0.9-2.9-0.5-4.5c0.4-1.5,1.4-2.7,2.8-3.4l16.2-8.6c1.4-0.7,2.9-0.9,4.4-0.4c1.5,0.5,2.7,1.5,3.4,2.9l8.9,16.7
			c0.8,1.4,0.9,2.9,0.5,4.5C666.8,815.1,665.9,816.2,664.5,817z M664.8,810.1l-8.9-16.7c-0.5-0.9-1.2-1.4-2.1-1.7
			c-0.9-0.3-1.8-0.2-2.6,0.2l-16.2,8.6c-0.8,0.4-1.4,1.1-1.6,2.1c-0.3,0.9-0.2,1.8,0.3,2.7l8.9,16.7c0.5,0.9,1.2,1.4,2.1,1.7
			c0.9,0.3,1.8,0.2,2.6-0.2c0.8-0.4,1.4-1.1,1.6-2.1c0.3-0.9,0.2-1.8-0.3-2.7l-7.2-13.5l10.1-5.4l7.2,13.5c0.5,0.9,1.2,1.4,2.1,1.7
			s1.8,0.2,2.6-0.2c0.8-0.4,1.4-1.1,1.6-2.1C665.3,811.9,665.2,811,664.8,810.1z"/>
		<path class="st2" d="M713.9,776.8c1,1.3,1.4,2.8,1.1,4.4c-0.2,1.6-1,2.9-2.2,3.8l-14.7,10.9c-1.3,0.9-2.7,1.3-4.3,1
			c-1.6-0.3-2.9-1-3.8-2.4l-11.3-15.2c-1-1.3-1.4-2.8-1.1-4.4c0.2-1.6,1-2.9,2.2-3.8l14.7-10.9c1.3-0.9,2.7-1.3,4.3-1
			c1.6,0.3,2.9,1,3.8,2.4L713.9,776.8z M712,778.2L700.8,763c-0.6-0.8-1.3-1.3-2.3-1.4c-1-0.2-1.8,0-2.6,0.6l-14.7,10.9
			c-0.8,0.6-1.2,1.3-1.3,2.3c-0.1,1,0.1,1.8,0.7,2.6l11.3,15.2c0.6,0.8,1.3,1.3,2.3,1.4c1,0.2,1.8,0,2.6-0.6l14.7-10.9
			c0.8-0.6,1.2-1.3,1.3-2.3C712.8,779.9,712.6,779,712,778.2z M704.4,779.4l-9.2,6.8l-7-9.5l9.2-6.8L704.4,779.4z M701.1,778.9
			l-4.2-5.7l-5.5,4.1l4.2,5.7L701.1,778.9z"/>
		<path class="st2" d="M739,755c1.1,1.2,1.6,2.6,1.5,4.2c-0.1,1.6-0.7,2.9-1.9,4l-13.7,12.1c-1.2,1-2.6,1.5-4.2,1.4
			c-1.6-0.1-2.9-0.8-4-2l-12.5-14.2c-1.1-1.2-1.6-2.6-1.5-4.2c0.1-1.6,0.7-2.9,1.9-4l13.7-12.1c1.2-1,2.6-1.5,4.2-1.4
			c1.6,0.1,2.9,0.8,4,2l4.7,5.3c0.6,0.6,1,1.3,1.2,2.1c0.7,0.3,1.3,0.8,1.9,1.5L739,755z M737.3,756.5l-4.7-5.3
			c-0.6-0.7-1.4-1.1-2.2-1.2c0-0.9-0.3-1.6-0.9-2.3l-4.7-5.3c-0.6-0.7-1.5-1.1-2.4-1.2c-1-0.1-1.8,0.2-2.5,0.8l-13.7,12.1
			c-0.7,0.6-1.1,1.4-1.1,2.4c0,1,0.3,1.8,0.9,2.5l12.5,14.2c0.6,0.7,1.4,1.1,2.4,1.2c1,0.1,1.8-0.2,2.5-0.8l13.7-12.1
			c0.7-0.6,1.1-1.4,1.1-2.4C738.2,758.1,737.9,757.3,737.3,756.5z M723.5,751.3l-8.6,7.6l-1.6-1.8l8.6-7.6L723.5,751.3z
			 M729.8,758.4l-8.6,7.6l-1.6-1.8l8.6-7.6L729.8,758.4z"/>
		<path class="st2" d="M741.6,752.7l-13.6-13.1c-1.2-1.1-1.8-2.5-1.9-4.1s0.5-3,1.6-4.1c1.1-1.1,2.4-1.7,4.1-1.7
			c1.6,0,3,0.6,4.2,1.7l9.4,9l8.7-9.1c1.1-1.1,2.5-1.7,4.1-1.7c1.6,0,3,0.6,4.2,1.7c1.2,1.1,1.8,2.5,1.9,4.1c0.1,1.6-0.5,3-1.6,4.1
			l-12.7,13.2c-1.1,1.1-2.5,1.7-4.1,1.7C744.1,754.4,742.7,753.8,741.6,752.7z M743.2,751c0.7,0.7,1.5,1,2.5,1c1,0,1.8-0.3,2.4-1
			l12.7-13.2c0.7-0.7,1-1.5,0.9-2.5c0-1-0.4-1.8-1.1-2.5c-0.7-0.7-1.5-1-2.5-1c-1,0-1.8,0.3-2.4,1l-10.3,10.7L734.3,733
			c-0.7-0.7-1.5-1-2.5-1c-1,0-1.8,0.3-2.4,1c-0.7,0.7-1,1.5-0.9,2.5c0,1,0.4,1.8,1.1,2.5L743.2,751z"/>
		<path class="st2" d="M772.3,728.2c-1,1.2-2.3,1.9-3.9,2c-1.6,0.1-3-0.4-4.3-1.4l-14.4-12.3c-1.2-1.1-1.9-2.4-2.1-4
			c-0.2-1.6,0.3-3,1.3-4.2c1-1.2,2.3-1.9,3.9-2c1.6-0.1,3,0.4,4.3,1.4l14.4,12.3c1.2,1.1,1.9,2.4,2.1,4
			C773.8,725.6,773.4,727,772.3,728.2z M770.1,721.8l-14.4-12.3c-0.7-0.6-1.6-0.9-2.6-0.9s-1.8,0.5-2.4,1.2
			c-0.6,0.7-0.9,1.6-0.8,2.5c0.1,1,0.5,1.8,1.3,2.4l14.4,12.3c0.7,0.6,1.6,0.9,2.6,0.9s1.8-0.5,2.4-1.2c0.6-0.7,0.9-1.6,0.8-2.5
			C771.2,723.2,770.8,722.4,770.1,721.8z"/>
		<path class="st2" d="M779,687.3c1.9-0.5,3.6-0.2,5.2,1l7.5,5.7c1.3,1,2.1,2.3,2.3,3.9c0.2,1.6-0.1,3-1.1,4.3l-11,14.6
			c-1,1.3-2.2,2-3.8,2.2c-1.6,0.2-3-0.2-4.3-1.2l-15.1-11.4c-1.3-1-2.1-2.3-2.3-3.9c-0.2-1.6,0.1-3,1.1-4.3l11-14.6
			c1-1.3,2.2-2,3.8-2.2c1.6-0.2,3,0.2,4.3,1.2C778.2,683.8,779,685.4,779,687.3z M783.4,699.2l-6.9,9.1l-9.4-7.1l3.5-4.6l5.5-7.3
			c0.6-0.8,0.8-1.6,0.6-2.6c-0.1-1-0.6-1.7-1.4-2.3c-0.8-0.6-1.6-0.8-2.6-0.7c-1,0.1-1.7,0.6-2.3,1.3l-11,14.6
			c-0.6,0.8-0.8,1.6-0.6,2.6c0.1,1,0.6,1.7,1.4,2.3l15.1,11.4c0.8,0.6,1.6,0.8,2.6,0.7c1-0.1,1.7-0.6,2.3-1.3l11-14.6
			c0.6-0.8,0.8-1.6,0.6-2.6c-0.1-1-0.6-1.7-1.4-2.3l-7.5-5.7c-0.8-0.6-1.6-0.8-2.6-0.7c-1,0.1-1.7,0.6-2.3,1.3l-5.5,7.3
			c-0.6,0.8-0.8,1.6-0.6,2.6c0.1,1,0.6,1.7,1.4,2.3c0.8,0.6,1.6,0.8,2.6,0.7c1-0.1,1.7-0.6,2.3-1.3l3.5-4.6L783.4,699.2z"/>
		<path class="st2" d="M785.8,686.2c-1.7-1.1-2.6-2.5-2.8-4.5c-1.8,0.7-3.5,0.5-5.2-0.6c-1.4-0.9-2.3-2.1-2.6-3.7
			c-0.4-1.6-0.1-3,0.7-4.3l9.8-15.5c0.8-1.3,2.1-2.2,3.6-2.5c1.6-0.3,3,0,4.4,0.8l16,10.1c1.4,0.9,2.3,2.1,2.6,3.7
			c0.4,1.6,0.1,3-0.7,4.3l-9.8,15.5c-0.9,1.3-2.1,2.2-3.6,2.5c-1.6,0.3-3,0-4.4-0.8L785.8,686.2z M797.7,689.8
			c0.9-0.2,1.7-0.7,2.2-1.5l9.8-15.5c0.5-0.8,0.6-1.7,0.4-2.6c-0.2-0.9-0.8-1.7-1.6-2.2l-16-10.1c-0.8-0.5-1.7-0.7-2.7-0.5
			c-0.9,0.2-1.7,0.7-2.2,1.5l-9.8,15.5c-0.5,0.8-0.6,1.7-0.4,2.6s0.8,1.7,1.6,2.2c0.8,0.5,1.7,0.7,2.7,0.5s1.7-0.7,2.2-1.5l8-12.6
			l2,1.3l-8,12.6c-0.5,0.8-0.6,1.7-0.4,2.6s0.8,1.7,1.6,2.2l8,5.1C795.8,689.8,796.7,690,797.7,689.8z M793.7,680.3l6.1-9.7l2,1.3
			l-6.1,9.7L793.7,680.3z"/>
		<path class="st2" d="M827.9,644.6c-0.7,1.4-1.9,2.3-3.4,2.8c-1.5,0.5-3,0.3-4.5-0.5l-11.5-6l-3.2,6.1l11.5,6
			c1.5,0.8,2.4,1.9,2.9,3.4c0.5,1.5,0.4,3-0.4,4.4c-0.7,1.4-1.9,2.3-3.4,2.8c-1.5,0.5-3,0.3-4.5-0.5l-16.7-8.8
			c-1.5-0.8-2.4-1.9-2.9-3.4c-0.5-1.5-0.4-3,0.4-4.4l8.5-16.2c0.7-1.4,1.9-2.3,3.4-2.8c1.5-0.5,3-0.3,4.5,0.5l16.7,8.8
			c1.5,0.8,2.4,1.9,2.9,3.4C828.8,641.7,828.7,643.2,827.9,644.6z M824.3,638.8l-16.7-8.8c-0.9-0.5-1.8-0.5-2.7-0.3s-1.6,0.8-2,1.7
			l-8.5,16.2c-0.4,0.8-0.5,1.7-0.2,2.6c0.3,0.9,0.9,1.6,1.8,2.1l16.7,8.8c0.9,0.5,1.8,0.5,2.7,0.3c0.9-0.3,1.6-0.8,2-1.7
			c0.4-0.8,0.5-1.7,0.2-2.6c-0.3-0.9-0.9-1.6-1.7-2.1l-13.6-7.1l5.3-10.1l13.6,7.1c0.9,0.5,1.8,0.5,2.7,0.3c0.9-0.3,1.6-0.8,2-1.7
			c0.4-0.8,0.5-1.7,0.2-2.6C825.8,639.9,825.2,639.2,824.3,638.8z"/>
		<path class="st2" d="M838.6,606.3c1.5,0.6,2.6,1.7,3.2,3.2s0.6,2.9,0,4.4l-7.2,16.9c-0.6,1.5-1.7,2.5-3.2,3.1
			c-1.5,0.6-3,0.5-4.5-0.1l-17.4-7.4c-1.5-0.6-2.6-1.7-3.2-3.2c-0.6-1.5-0.6-3,0-4.4c0.5-1.2,1.4-2.2,2.7-2.8
			c1.2-0.6,2.5-0.8,3.9-0.5l1.4-3.2c0.6-1.4,1.7-2.5,3.2-3c1.5-0.6,3-0.5,4.5,0.1c1.5,0.6,2.6,1.7,3.2,3.2c0.6,1.5,0.6,2.9,0,4.4
			l-1.3,3.2l2.2,0.9l4.9-11.6c0.6-1.5,1.7-2.5,3.2-3.1C835.6,605.6,837.1,605.6,838.6,606.3z M837.7,608.4c-0.9-0.4-1.8-0.4-2.7-0.1
			c-0.9,0.3-1.5,1-1.9,1.8l-5.8,13.7l-6.5-2.8l2.2-5.3c0.4-0.9,0.4-1.8,0-2.6c-0.4-0.9-1-1.5-1.9-1.9c-0.9-0.4-1.8-0.4-2.7-0.1
			c-0.9,0.3-1.5,1-1.9,1.8l-2.2,5.3l-1.1-0.5c-0.9-0.4-1.8-0.4-2.7-0.1c-0.9,0.3-1.5,1-1.9,1.8c-0.4,0.9-0.4,1.8,0,2.6
			c0.4,0.9,1,1.5,1.9,1.9l17.4,7.4c0.9,0.4,1.8,0.4,2.7,0.1c0.9-0.3,1.5-1,1.9-1.8l7.2-16.9c0.4-0.9,0.4-1.8,0-2.6
			C839.2,609.4,838.6,608.8,837.7,608.4z"/>
	</g>
	<g>
		<path class="st2" d="M263.6,164.1l-16.5-32.2c-1.4-2.8-1.7-5.7-0.8-8.6c0.9-2.9,2.7-5.1,5.4-6.5c2.7-1.4,5.5-1.6,8.4-0.6
			c2.9,1,5.1,2.9,6.5,5.7l11.3,22.1l21.5-11c2.7-1.4,5.5-1.6,8.4-0.6c2.9,1,5.1,2.9,6.5,5.7c1.4,2.8,1.7,5.7,0.8,8.6
			c-0.9,2.9-2.7,5.1-5.4,6.5l-31.2,16c-2.7,1.4-5.5,1.6-8.4,0.6C267.2,168.8,265,166.9,263.6,164.1z M267.5,162.1
			c0.9,1.7,2.2,2.8,3.9,3.4c1.7,0.6,3.4,0.5,5-0.3l31.2-16c1.6-0.8,2.7-2.1,3.2-3.9c0.5-1.8,0.4-3.5-0.5-5.1
			c-0.9-1.7-2.2-2.8-3.9-3.4c-1.7-0.6-3.4-0.5-5,0.3l-25.4,13l-13.4-26.2c-0.9-1.7-2.2-2.8-3.9-3.4c-1.7-0.6-3.4-0.5-5,0.3
			c-1.6,0.8-2.7,2.1-3.2,3.9c-0.5,1.8-0.4,3.5,0.5,5.1L267.5,162.1z"/>
		<path class="st2" d="M354.9,77.5c2.7,1.4,4.6,3.6,5.6,6.6l11.4,34.3c1,3,0.8,5.8-0.5,8.6c-1.3,2.8-3.4,4.6-6.3,5.6l-33.3,11.1
			c-2.9,1-5.7,0.7-8.4-0.7c-2.7-1.4-4.6-3.6-5.6-6.6L306.4,102c-1-3-0.8-5.8,0.5-8.6c1.3-2.8,3.4-4.6,6.3-5.6c2.9-1,5.7-0.7,8.4,0.7
			c2.7,1.4,4.6,3.6,5.6,6.6l7.8,23.6l12.5-4.1L339.7,91c-1-3-0.8-5.8,0.5-8.6c1.3-2.8,3.4-4.6,6.3-5.6
			C349.4,75.8,352.2,76,354.9,77.5z M353,81.5c-1.6-0.9-3.3-1-5-0.4c-1.7,0.6-3,1.7-3.8,3.4c-0.8,1.7-0.9,3.4-0.3,5.2l9.3,27.9
			l-20.8,6.9L323,96.5c-0.6-1.8-1.7-3.1-3.3-3.9c-1.6-0.9-3.3-1-5-0.4c-1.7,0.6-3,1.7-3.8,3.4c-0.8,1.7-0.9,3.4-0.3,5.2L322,135
			c0.6,1.8,1.7,3.1,3.3,3.9c1.6,0.9,3.3,1,5,0.4l33.3-11.1c1.7-0.6,3-1.7,3.8-3.4c0.8-1.7,0.9-3.4,0.3-5.2l-11.4-34.3
			C355.8,83.7,354.6,82.3,353,81.5z"/>
		<path class="st2" d="M422.8,120.6l-34.6,5.8c-3,0.5-5.7-0.1-8.2-2c-2.5-1.8-4-4.3-4.5-7.4l-6-35.7c-0.5-3.1,0.1-5.9,1.8-8.4
			c1.7-2.5,4.1-4,7.1-4.5l34.6-5.8c3-0.5,5.7,0.1,8.2,2c2.5,1.8,4,4.3,4.5,7.4c0.5,3.1-0.1,5.9-1.8,8.4c-1.7,2.5-4.1,4-7.1,4.5
			L393,89l2.3,13.4l23.8-4c3-0.5,5.7,0.1,8.2,2c2.5,1.8,4,4.3,4.5,7.4c0.5,3.1-0.1,5.9-1.8,8.4C428.2,118.6,425.8,120.1,422.8,120.6
			z M427.5,108.4c-0.3-1.8-1.2-3.3-2.7-4.4c-1.5-1.1-3.1-1.5-4.9-1.2l-28.1,4.7L388,85.2l28.1-4.7c1.8-0.3,3.2-1.2,4.3-2.7
			c1-1.5,1.4-3.2,1.1-5c-0.3-1.8-1.2-3.3-2.7-4.4c-1.5-1.1-3.1-1.5-4.9-1.2L379.2,73c-1.8,0.3-3.2,1.2-4.3,2.7c-1,1.5-1.4,3.2-1.1,5
			l6,35.7c0.3,1.8,1.2,3.3,2.7,4.4c1.5,1.1,3.1,1.5,4.9,1.2l34.6-5.8c1.8-0.3,3.2-1.2,4.3-2.7C427.4,111.9,427.8,110.2,427.5,108.4z
			"/>
		<path class="st2" d="M487.8,79c3,2.2,4.5,5.2,4.5,9l0.3,18.1c0.1,3.1-1,5.8-3.1,8.1c-2.1,2.2-4.7,3.4-7.7,3.4
			c-3,0.1-5.6-1-7.8-3.2c-2.2-2.2-3.3-4.8-3.3-8l-0.1-6.8l-13.2,0.2l0.1,6.8c0.1,3.1-1,5.8-3.1,8.1c-2.1,2.2-4.7,3.4-7.7,3.4
			c-3,0.1-5.6-1-7.8-3.2c-2.2-2.2-3.3-4.8-3.3-8L435,70.9c-0.1-3.1,1-5.8,3.1-8.1c2.1-2.2,4.7-3.4,7.7-3.4c3.6-0.1,6.6,1.4,8.8,4.4
			c2.1-3.1,5-4.6,8.7-4.7l17.7-0.3c3,0,5.5,1,7.7,3.2c2.1,2.2,3.2,4.8,3.3,7.9C492.1,73.7,490.7,76.7,487.8,79z M470.2,77.1
			l11.1-0.2c1.8,0,3.2-0.7,4.5-2.1c1.2-1.4,1.8-3,1.8-4.8c0-1.8-0.7-3.4-2-4.7s-2.8-2-4.5-2l-17.7,0.3c-1.8,0-3.4,0.7-4.6,2.1
			c-1.3,1.3-1.9,3-1.8,4.8l0.2,11.3l-4.4,0.1l-0.2-11.3c0-1.9-0.7-3.5-2-4.8c-1.3-1.3-2.9-1.9-4.7-1.9c-1.8,0-3.4,0.7-4.6,2.1
			c-1.3,1.3-1.9,3-1.8,4.8L440,107c0,1.9,0.7,3.5,2,4.8c1.3,1.3,2.9,1.9,4.7,1.9c1.8,0,3.3-0.7,4.6-2.1c1.3-1.3,1.9-3,1.8-4.8
			L453,95.5l21.9-0.4l0.2,11.3c0,1.9,0.7,3.5,2,4.8c1.3,1.3,2.9,1.9,4.7,1.9c1.8,0,3.3-0.7,4.6-2.1c1.3-1.3,1.9-3,1.8-4.8l-0.3-18.1
			c0-1.8-0.7-3.4-2-4.7c-1.3-1.3-2.8-2-4.5-2l-0.2,0l-11,0.2L470.2,77.1z"/>
		<path class="st2" d="M555.4,96.1c-0.4,3-1.8,5.4-4.2,7.3c-2.4,1.9-5.1,2.6-8,2.2l-6.7-0.9l-1,6.9c-0.4,3-1.9,5.5-4.3,7.4
			c-2.4,1.9-5.1,2.6-8.1,2.2s-5.4-1.8-7.2-4.3c-1.8-2.4-2.6-5.2-2.1-8.2l1-6.9l-6.7-0.9c-2.9-0.4-5.3-1.8-7.1-4.3
			c-1.8-2.5-2.5-5.2-2.1-8.2l2.5-18.2c0.4-3.1,1.9-5.6,4.3-7.4c2.4-1.9,5.1-2.6,8.1-2.2c3,0.4,5.4,1.8,7.2,4.3
			c1.8,2.4,2.6,5.2,2.1,8.3l-0.9,6.8l13,1.8l0.9-6.8c0.4-3.1,1.9-5.6,4.3-7.4c2.4-1.9,5.1-2.6,8.1-2.2s5.4,1.8,7.2,4.3
			c1.8,2.4,2.6,5.2,2.1,8.3L555.4,96.1z M551.1,95.5l2.5-18.2c0.3-1.9-0.2-3.5-1.3-5c-1.1-1.5-2.6-2.3-4.3-2.6
			c-1.8-0.2-3.4,0.2-4.9,1.3c-1.5,1.1-2.3,2.6-2.6,4.4L539,86.8l-21.7-3l1.6-11.3c0.3-1.9-0.2-3.5-1.3-5c-1.1-1.5-2.6-2.3-4.3-2.6
			c-1.8-0.2-3.4,0.2-4.9,1.3c-1.5,1.1-2.3,2.6-2.6,4.4l-2.5,18.2c-0.2,1.7,0.2,3.3,1.3,4.8c1.1,1.5,2.5,2.4,4.2,2.6l11,1.5
			l-1.6,11.4c-0.2,1.8,0.2,3.4,1.3,4.9c1.1,1.5,2.6,2.3,4.3,2.6c1.7,0.2,3.3-0.2,4.8-1.3c1.5-1.1,2.3-2.6,2.6-4.3l1.6-11.4l11,1.5
			c1.7,0.2,3.2-0.2,4.7-1.4C550,98.7,550.8,97.2,551.1,95.5z"/>
		<path class="st2" d="M604.9,141.3c-2.8-1.1-4.9-3-6.1-5.8c-1.2-2.8-1.3-5.7-0.2-8.6l12.6-33.9c1.1-2.9,3-5.1,5.8-6.4
			c2.8-1.3,5.6-1.4,8.4-0.4c2.8,1.1,4.9,3,6.1,5.8c1.2,2.8,1.3,5.7,0.2,8.6l-12.6,33.9c-1.1,2.9-3,5.1-5.8,6.4
			C610.6,142.2,607.7,142.3,604.9,141.3z M615,133L627.6,99c0.7-1.8,0.6-3.5-0.1-5.2c-0.7-1.7-2-2.9-3.7-3.5
			c-1.7-0.6-3.4-0.5-5.1,0.2c-1.7,0.8-2.8,2.1-3.5,3.8l-12.6,33.9c-0.7,1.8-0.6,3.5,0.1,5.2c0.7,1.7,2,2.9,3.7,3.5
			c1.7,0.6,3.4,0.6,5-0.2C613.2,136,614.4,134.7,615,133z"/>
		<path class="st2" d="M674.2,160.5c-1.4,2.8-3.6,4.7-6.5,5.7c-2.9,1-5.7,0.8-8.4-0.5L628,150c-2.7-1.4-4.5-3.5-5.5-6.4
			c-0.9-2.9-0.7-5.8,0.7-8.6c1.7-3.3,4.3-5.4,8-6.1c-1.6-3.4-1.5-6.7,0.1-10.1c1.7-3.4,4.4-5.4,8-6.1c-1.6-3.4-1.5-6.7,0.1-10.1
			c1.4-2.8,3.6-4.7,6.5-5.7c2.9-1,5.7-0.8,8.4,0.5l31.4,15.7c2.7,1.4,4.5,3.5,5.5,6.4c0.9,2.9,0.7,5.8-0.7,8.6L674.2,160.5z
			 M670.3,158.6l16.2-32.4c0.8-1.7,1-3.4,0.4-5.2c-0.6-1.8-1.6-3.1-3.3-3.9l-31.4-15.7c-1.6-0.8-3.3-0.9-5-0.3
			c-1.7,0.6-3,1.8-3.9,3.4c-0.8,1.7-1,3.4-0.4,5.2c0.6,1.8,1.6,3.1,3.3,3.9l25.5,12.8l-2,4l-25.5-12.8c-1.6-0.8-3.3-0.9-5-0.3
			c-1.7,0.6-3,1.8-3.9,3.4c-0.8,1.7-1,3.4-0.4,5.2c0.6,1.8,1.6,3.1,3.3,3.9l25.5,12.8l-2,4l-25.5-12.8c-1.6-0.8-3.3-0.9-5-0.3
			c-1.7,0.6-3,1.8-3.9,3.4c-0.8,1.7-1,3.4-0.4,5.2c0.6,1.8,1.6,3,3.3,3.9l31.4,15.7c1.6,0.8,3.3,0.9,5,0.3
			C668.1,161.4,669.4,160.2,670.3,158.6z"/>
	</g>
	<g>
		<ellipse class="st1" cx="277" cy="424.4" rx="29.2" ry="63"/>
		<ellipse class="st3" cx="279" cy="424.6" rx="22.8" ry="55.5"/>
		
			<ellipse transform="matrix(6.825485e-02 -0.9977 0.9977 6.825485e-02 -162.3152 678.364)" class="st0" cx="282" cy="426.1" rx="57.2" ry="25"/>
		<ellipse class="st1" cx="660.5" cy="424.4" rx="29.2" ry="63"/>
		<ellipse class="st3" cx="658.5" cy="424.6" rx="22.8" ry="55.5"/>
		
			<ellipse transform="matrix(0.9977 -6.825485e-02 6.825485e-02 0.9977 -27.5535 45.7332)" class="st0" cx="655.5" cy="426.1" rx="25" ry="57.2"/>
		<path class="st3" d="M468.8,491.5c-58.5,0-110.5,14.2-143.4,36.1h-31.6l-4.7,50.8c-0.1,1.4-0.2,2.9-0.2,4.3
			c0,50.4,80.5,91.3,179.9,91.3c99.4,0,179.9-40.9,179.9-91.3c0-1.5-0.1-2.9-0.2-4.3c0,0-4.7-50.8-4.7-50.8h-31.6
			C579.3,505.6,527.3,491.5,468.8,491.5z"/>
		<path class="st0" d="M468.7,678.3c-48.7,0-94.6-9.7-129.2-27.2c-35.5-18-55.1-42.3-55.1-68.4c0-1.4,0.1-2.9,0.2-4.5
			c0-0.1,0-0.2,0-0.3l4.7-50.8c0.2-2.2,2.1-4,4.3-4H324c35.1-23,87.7-36.1,144.7-36.1c57,0,109.6,13.2,144.7,36.1h30.3
			c2.2,0,4.1,1.7,4.3,4l4.7,50.8c0,0.1,0,0.2,0,0.3c0.1,1.5,0.2,3,0.2,4.5c0,26.1-19.6,50.4-55.1,68.4
			C563.4,668.7,517.5,678.3,468.7,678.3z M293.4,578.5c0,0.1,0,0.2,0,0.3c-0.1,1.4-0.2,2.7-0.2,3.9c0,47.9,78.8,86.9,175.6,86.9
			c96.8,0,175.6-39,175.6-86.9c0-1.3-0.1-2.6-0.2-3.9c0-0.1,0-0.2,0-0.3l-4.3-46.6h-27.7c-0.9,0-1.7-0.3-2.4-0.7
			c-33.7-22.5-85.1-35.4-141-35.4c-55.9,0-107.3,12.9-141,35.4c-0.7,0.5-1.6,0.7-2.4,0.7h-27.7L293.4,578.5z"/>
		<g>
			<ellipse class="st4" cx="468.8" cy="539" rx="175.2" ry="91.3"/>
			<path class="st4" d="M468.7,633.8c-47.4,0-91.9-9.6-125.5-27.1C308.9,588.8,290,564.8,290,539c0-25.7,18.9-49.8,53.2-67.6
				c33.6-17.5,78.2-27.1,125.5-27.1c47.4,0,91.9,9.6,125.5,27.1c34.3,17.9,53.2,41.9,53.2,67.6c0,25.7-18.9,49.8-53.2,67.6
				C560.7,624.1,516.1,633.8,468.7,633.8z M468.7,451.2C374,451.2,297,490.6,297,539c0,48.4,77,87.8,171.8,87.8
				c94.7,0,171.8-39.4,171.8-87.8C640.5,490.6,563.5,451.2,468.7,451.2z"/>
		</g>
		<g>
			<path class="st3" d="M468.8,303.8c-77.7,0-131.6,17.6-160.4,52.3c-20.1,24.3-27.3,56.1-21.2,94.4
				c11.3,71.5,34.6,141.3,181.6,141.3c147,0,170.3-69.8,181.6-141.3c6-38.3-1.1-70.1-21.2-94.4C600.4,321.4,546.4,303.8,468.8,303.8
				z"/>
			<path class="st4" d="M468.8,596.2c-68,0-115.4-14.8-144.8-45.2c-26.6-27.4-35.4-64.2-41.1-99.8c-6.2-39.6,1.2-72.5,22.2-97.8
				c29.6-35.8,84.7-53.9,163.7-53.9s134.1,18.1,163.7,53.9c21,25.3,28.4,58.2,22.2,97.8c-5.6,35.7-14.5,72.4-41.1,99.8
				C584.1,581.4,536.7,596.2,468.8,596.2z M468.8,308.1c-76.3,0-129.1,17.1-157,50.8c-19.3,23.3-26.1,53.9-20.3,90.9
				c5.4,34.2,13.8,69.5,38.7,95.1c27.8,28.6,73.1,42.5,138.6,42.5c65.5,0,110.8-13.9,138.6-42.5c24.9-25.7,33.3-60.9,38.7-95.1
				c5.8-37-1-67.6-20.3-90.9C597.9,325.2,545.1,308.1,468.8,308.1z"/>
		</g>
		<g>
			<path class="st3" d="M468.8,541.9c-7.1,0-14.1-0.4-21.1-1.3c-10.2-1.2-20.2,3.3-25.9,11.8c-3.4,5.1-6.9,10.1-10.6,15
				c-2.9,3.8-7.8,5.6-12.4,4.5c-73.2-17.9-88.5-67-97.3-123.7c-16.2-104.7,74.9-131,167.3-131c92.4,0,183.5,26.2,167.3,131
				c-8.8,56.7-24.1,105.8-97.3,123.7c-4.7,1.1-9.5-0.7-12.4-4.5c-3.7-4.9-7.3-9.9-10.6-15c-5.7-8.5-15.7-13-25.9-11.8
				C482.9,541.4,475.8,541.9,468.8,541.9z"/>
			<path class="st4" d="M536,577.4c-5.3,0-10.4-2.5-13.8-6.9c-3.8-5-7.4-10.1-10.8-15.2c-4.6-6.9-12.6-10.5-20.9-9.5
				c-7.2,0.9-14.5,1.3-21.7,1.3c-0.1,0-0.1,0-0.2,0c-7.2,0-14.5-0.4-21.7-1.3c-8.3-1-16.3,2.6-20.9,9.5c-3.4,5.1-7,10.2-10.8,15.2
				c-4.2,5.5-11.2,8-17.8,6.4c-78.1-19.1-92.8-73.7-101.2-128c-5.7-36.7,1.2-66.7,20.4-89.1c27.2-31.8,78.4-47.9,152.1-47.9
				c73.7,0,124.8,16.1,152.1,47.9c19.2,22.4,26.1,52.4,20.4,89.1c-8.4,54.3-23.1,108.9-101.2,128C538.7,577.2,537.3,577.4,536,577.4
				z M468.8,322.4c-70.5,0-119,14.9-144.1,44.2c-17.1,20-23.2,47.1-18,80.7c8.2,52.9,21.5,101.9,93.3,119.5c2.6,0.6,5.4-0.4,7-2.6
				c3.7-4.8,7.2-9.8,10.4-14.7c6.8-10.2,18.6-15.6,30.8-14.1c6.7,0.8,13.6,1.2,20.4,1.2c7,0,13.8-0.4,20.6-1.2
				c12.3-1.5,24.1,3.9,30.8,14.1c3.3,4.9,6.8,9.9,10.4,14.7c1.7,2.2,4.4,3.2,7,2.6c71.9-17.6,85.2-66.5,93.3-119.5
				c5.2-33.6-0.9-60.7-18-80.7C587.7,337.2,539.2,322.4,468.8,322.4z"/>
		</g>
		<g>
			<defs>
				<path id="SVGID_5_" d="M468.8,541.9c-7.1,0-14.1-0.4-21.1-1.3c-10.2-1.2-20.2,3.3-25.9,11.8c-3.4,5.1-6.9,10.1-10.6,15
					c-2.9,3.8-7.8,5.6-12.4,4.5c-73.2-17.9-88.5-67-97.3-123.7c-16.2-104.7,74.9-131,167.3-131c92.4,0,183.5,26.2,167.3,131
					c-8.8,56.7-24.1,105.8-97.3,123.7c-4.7,1.1-9.5-0.7-12.4-4.5c-3.7-4.9-7.3-9.9-10.6-15c-5.7-8.5-15.7-13-25.9-11.8
					C482.9,541.4,475.8,541.9,468.8,541.9z"/>
			</defs>
			<clipPath id="SVGID_1_">
				<use xlink:href="#SVGID_5_"  style="overflow:visible;"/>
			</clipPath>
			<path class="st5" d="M468.8,541.9c-7.1,0-14.1-0.4-21.1-1.3c-10.2-1.2-20.2,3.3-25.9,11.8c-3.4,5.1-6.9,10.1-10.6,15
				c-2.9,3.8-7.8,5.6-12.4,4.5c-73.2-17.9-88.5-67-97.3-123.7c-16.2-104.7,74.9-131,167.3-131c92.4,0,183.5,26.2,167.3,131
				c-8.8,56.7-24.1,105.8-97.3,123.7c-4.7,1.1-9.5-0.7-12.4-4.5c-3.7-4.9-7.3-9.9-10.6-15c-5.7-8.5-15.7-13-25.9-11.8
				C482.9,541.4,475.8,541.9,468.8,541.9z"/>
			<path class="st6" d="M468.8,254c-63.8,0-107.1,15.3-110.1,78c-1.2,16.1,2,33.9,2,35.7c0.6,4.6,1.5,6.8,4.5,23.4
				c0,0-5.4-8.5-12.6-3.4c-7.3,5.2-10.7,13.1-5,34.2c1.5,5.4,5.1,9.5,7.3,16c1,5.6,1.7,11.3,4.6,16.2c4.3,7.2,17.2,1.7,15.9-5.6
				c-1.4-7.6,4.5,0.2,4.6,0c2.4,25,0.4,47.8,17.9,71c1.3,3.2,9.6,22.5,17.5,30.8c8.8,9.2,23,14.8,35.3,14.8c7.4,0,13.3,0,18.1,0
				c4.8,0,10.7,0,18.1,0c12.3,0,26.5-5.5,35.3-14.8c8-8.3,16.2-27.7,17.5-30.8c17.5-23.2,15.4-46,17.9-71c0.1,0.2,6-7.6,4.6,0
				c-1.3,7.3,11.5,12.8,15.9,5.6c2.9-4.9,3.6-10.6,4.6-16.2c2.2-6.6,5.9-10.6,7.3-16c5.7-21.1,2.3-29.1-5-34.2
				c-7.2-5.1-12.6,3.4-12.6,3.4c3-16.6,3.8-18.8,4.5-23.4c-0.1-1.8,3.2-19.6,2-35.7C575.9,269.4,532.6,254,468.8,254z"/>
			<g class="st7">
				<path class="st4" d="M468.8,237.4c-0.1,0-0.2,0-0.3,0c-65.4,0-109.5,25.7-112.5,90.6c-1.3,16.6,2.1,35.1,2.1,37
					c0.6,4.7,0.3,2.7,3.4,19.9c0,0-4.3-4.5-11.7,0.8c-7.4,5.4-10.9,13.6-5.1,35.4c1.5,5.6,5.2,9.8,7.5,16.6c1,5.8,1.7,11.7,4.7,16.8
					c4.4,7.5,14.3,8.2,18.9,2.1c0.1-0.2,0.3-0.4,0.4-0.6c2.5,25.8,2.1,42.2,20,66.2c1.4,3.3,9.8,23.3,18,31.9
					c9,9.5,23.6,15.3,36.2,15.3c7.6,0,13.6,0,18.5,0c4.9,0,11,0,18.5,0c12.6,0,27.2-5.7,36.2-15.3c8.2-8.6,16.6-28.6,18-31.9
					c17.9-24,17.5-40.4,20-66.2c0.1,0.2,0.3,0.4,0.4,0.6c4.6,6.1,14.4,5.4,18.9-2.1c3-5.1,3.7-10.9,4.7-16.7c2.3-6.8,6-11,7.5-16.6
					c5.8-21.8,2.4-30.1-5.1-35.4c-7.4-5.3-11.7-0.8-11.7-0.8c3-17.2,2.7-15.2,3.4-20c-0.1-1.8,3.3-20.3,2-36.9
					c-3-64.8-47.1-90.6-112.5-90.6C468.9,237.4,468.8,237.4,468.8,237.4z M468.8,454.3c0,0-0.1,0-0.1,0c-5.8,1-9.2-1.2-13.9-0.7
					c3.5,0.4,5.8,4,7.6,5.5c-0.7,0.2-1.5,0.5-2.2,0.7c-1.5-1.9-5.1-4-8-4.7c-5.1-1.3-7.3,1.7-6.1,3.5c-4.4-1.3-2.1-3.1-3.1-7
					c0,0,0-0.1,0-0.1c-1-4.1-4.9,6.8-0.4,10.4c0,0.1,0.1,0.1,0.1,0.1c0.9,0.8,2.1,1.4,3.5,2c6.9,2.7,10.8,1,14.3,4.7
					c0,0,1.6,1.5,2.1,4.1c0,0.1,0.5,3.6,0.5,3.6c0.2,1.6,0.4,2.9,0.9,4.1c0.2,0.5,0.4,0.9,0.7,1.4c1.9-1.9,1.3-10.7,3.9-12.2
					c0,0,0.1,0.1,0.1,0.1c0,0,0.1-0.1,0.1-0.1c2.6,1.5,2,10.3,3.9,12.2c0.3-0.5,0.6-0.9,0.7-1.4c0.5-1.3,0.7-2.6,0.9-4.2
					c0-0.1,0.5-3.5,0.5-3.6c0.5-2.6,2.1-4.1,2.1-4.1c3.5-3.8,7.4-2,14.3-4.7c1.5-0.6,2.6-1.2,3.6-2c0.1,0,0.1-0.1,0.1-0.1
					c4.5-3.6,0.7-14.5-0.4-10.4c0,0,0,0.1,0,0.1c-1,3.9,1.3,5.7-3.1,7c1.2-1.9-1.1-4.9-6.1-3.5c-2.9,0.8-6.5,2.9-8,4.7
					c-0.7-0.2-1.4-0.4-2.2-0.7c1.9-1.5,4.1-5.2,7.6-5.5c-4.7-0.5-8.1,1.7-13.9,0.7C468.8,454.3,468.8,454.3,468.8,454.3z"/>
				<path class="st4" d="M468.8,509.6c-15.1-0.3-4.9,3.6-28.4-4.7c0,0,7,7.9,12.9,10.9c5.8,3,13.3,1.1,13.2,6.3
					c-1.8,0.2-3.5,0.8-5.1,1.6c-2.5,1.4-4.7,3.5-6,6.6c4.6-2.4,9-3.5,13.3-3.5c4.4,0,8.7,1.2,13.3,3.5c-1.3-3-3.5-5.2-6-6.6
					c-1.6-0.9-3.3-1.4-5.1-1.6c0-5.3,7.4-3.3,13.2-6.3c5.8-3,12.9-10.9,12.9-10.9C473.6,513.2,483.8,509.3,468.8,509.6z"/>
				<path class="st4" d="M468.8,489.4c-14.7-0.7-4.1-5.5-36.1,4.2c-3.7,0.8-5.7-1-7.5-3c-0.9,3.7,1.1,9.8,3.8,11.8
					c-0.3-1.7-0.4-3.1-0.1-4.3c0.9-4.8-0.1-1.7,32.3-1.1c0.4,0,0.8,0.3,0.9,0.7l0.9,2.9l0.9-2.9c0.2-0.8,1.4-0.8,1.5,0l1.1,8.5
					c1-7.3,0.7-9.1,2.1-9.1c0.1,0,0.2,0,0.2,0c0.1,0,0.1,0,0.2,0c1.4,0,1.1,1.8,2.1,9.1l1.1-8.5c0.1-0.8,1.3-0.9,1.5,0l0.9,2.9
					l0.9-2.9c0.1-0.4,0.5-0.7,0.9-0.7c32.4-0.6,31.4-3.7,32.3,1.1c0.2,1.2,0.2,2.6-0.1,4.3c2.8-2,4.7-8.1,3.8-11.8
					c-1.8,2-3.8,3.8-7.5,3C472.8,483.9,483.5,488.7,468.8,489.4C468.8,489.4,468.8,489.4,468.8,489.4z"/>
			</g>
		</g>
		<g>
			<path class="st3" d="M330.1,510.3c-18.7-67.8-6.9-111.2,41.5-136.8c19.9-10.5,9.5-38.8-13-29.3
				C276.3,378.9,314.3,486.1,330.1,510.3z"/>
		</g>
		<path class="st3" d="M421.1,340.5c1.8,8-3.8,16.1-12.5,18.1c-8.8,2-17.4-2.8-19.2-10.8c-1.8-8,3.8-16.1,12.5-18.1
			C410.7,327.7,419.3,332.5,421.1,340.5z"/>
		<g>
			<path class="st4" d="M446.8,556.2c-3.3-0.3-5.7-3.1-5.4-6.3c-0.7,0.9-1.2,2-1.4,3.2c-0.4,3.3,2.1,6.3,5.6,6.6
				c15.4,1.3,31,1.3,46.4,0c3.5-0.3,6-3.3,5.6-6.6c-0.1-1.2-0.6-2.3-1.4-3.2c0.2,3.2-2.2,6-5.4,6.3
				C476.1,557.4,461.4,557.4,446.8,556.2z"/>
			<path class="st4" d="M445.8,567c-3.4-0.3-5.9-3.1-5.7-6.3c-0.8,0.9-1.3,2-1.4,3.2c-0.4,3.3,2.2,6.3,5.8,6.6
				c16.1,1.4,32.2,1.4,48.3,0c3.6-0.3,6.2-3.3,5.8-6.6c-0.1-1.2-0.6-2.3-1.4-3.2c0.2,3.2-2.3,6-5.7,6.3
				C476.4,568.3,461.1,568.3,445.8,567z"/>
			<path class="st4" d="M444.9,577.9c-3.6-0.3-6.2-3.2-5.9-6.3c-0.8,0.9-1.3,2-1.4,3.2c-0.4,3.3,2.4,6.3,6.1,6.7
				c16.7,1.4,33.5,1.4,50.2,0c3.7-0.3,6.5-3.4,6.1-6.7c-0.1-1.2-0.7-2.3-1.4-3.2c0.2,3.2-2.4,6-5.9,6.3
				C476.7,579.2,460.8,579.2,444.9,577.9z"/>
		</g>
		<ellipse class="st1" cx="468.8" cy="539" rx="175.2" ry="91.3"/>
		<path class="st0" d="M468.7,633.8c-47.4,0-91.9-9.6-125.5-27.1C308.9,588.8,290,564.8,290,539c0-25.7,18.9-49.8,53.2-67.6
			c33.6-17.5,78.2-27.1,125.5-27.1c47.4,0,91.9,9.6,125.5,27.1c34.3,17.9,53.2,41.9,53.2,67.6c0,25.7-18.9,49.8-53.2,67.6
			C560.7,624.1,516.1,633.8,468.7,633.8z M468.7,451.2C374,451.2,297,490.6,297,539c0,48.4,77,87.8,171.8,87.8
			c94.7,0,171.8-39.4,171.8-87.8C640.5,490.6,563.5,451.2,468.7,451.2z"/>
		<path class="st3" d="M468.8,206.4c-18.3,0-36,2.5-52.7,7.2c-5.9,1.7-7.6,5.9-7.3,11.6c-2.3,0.8-47,14.6-81.2,56
			c-5.4-2.5-10.5-0.8-13.2,3c-17,23.6-28.4,51.2-32.1,81.2c-13.7,24.8-18,54.7-12.5,89c11.9,75,38.1,155.1,199.1,155.1
			c161,0,187.2-80.1,199.1-155.1c5.4-34.3,1.2-64.2-12.5-89c-3.8-29.9-15.1-57.6-32.1-81.2c-2.7-3.8-7.8-5.5-13.2-3
			c-34.2-41.4-78.8-55.2-81.2-56c0.3-5.7-1.4-10-7.3-11.6C504.8,208.9,487.1,206.4,468.8,206.4z"/>
		<path class="st1" d="M468.8,207.2c-11.4,0.2-22.7,1.3-33.8,3.5c-5.6,1.1-11.1,2.4-16.5,4l-2,0.6c-0.6,0.2-1.2,0.4-1.7,0.7
			c-1.1,0.5-2,1.3-2.6,2.2c-1.3,1.8-1.6,4.4-1.4,7c0,0.9-0.5,1.6-1.2,1.9c-7.8,2.8-15.2,6.3-22.4,10.2c-7.2,3.9-14.1,8.4-20.7,13.2
			c-3.4,2.3-6.5,5-9.7,7.5c-3,2.7-6.2,5.3-9.1,8.2c-6,5.5-11.2,11.7-16.3,18c0,0-0.1,0.1-0.1,0.1c-1.4,1.6-3.6,2-5.4,1.2
			c-2.7-1.3-5.2-1-6.9,0.6c-0.2,0.2-0.4,0.4-0.6,0.7c-0.1,0.1-0.3,0.3-0.4,0.5l-0.5,0.6l-1.8,2.6c-1.2,1.7-2.3,3.5-3.5,5.2
			c-4.5,7-8.5,14.4-12,22c-7,15.2-11.6,31.5-13.9,48.1c-0.1,0.5-0.2,1-0.5,1.4c-7.2,13.3-11.4,28.1-13,43.1
			c-1.6,15.1-0.6,30.4,2,45.5c2.5,15.3,5.7,30.4,10.4,45c2.4,7.3,5.2,14.4,8.4,21.2c3.3,6.8,7.1,13.4,11.4,19.6
			c4.2,6.2,9.2,11.9,14.5,17.2c2.6,2.7,5.5,5.1,8.3,7.5c1.5,1.2,3,2.3,4.5,3.4l2.2,1.7l2.3,1.6c6.2,4.3,12.9,7.8,19.7,11.2
			c6.9,3.1,14,6,21.3,8.1c14.5,4.6,29.7,7.5,44.9,9.3c15.3,1.8,30.7,2.5,46.2,2.6c15.5,0,30.9-0.7,46.2-2.5
			c15.3-1.8,30.4-4.7,45-9.2c1.8-0.6,3.7-1.1,5.4-1.7l5.4-2l2.7-1l2.6-1.1l5.2-2.3c6.8-3.3,13.5-6.8,19.7-11.1l2.4-1.6
			c0.8-0.5,1.5-1.1,2.3-1.7c1.5-1.1,3-2.3,4.5-3.4c2.8-2.5,5.7-4.9,8.4-7.5c5.4-5.2,10.3-11,14.6-17.2c4.3-6.2,8.2-12.7,11.4-19.6
			c3.3-6.9,6-14,8.4-21.2c4.7-14.6,8-29.7,10.5-45c2.7-15.1,3.7-30.5,2.1-45.7c-1.6-15.1-5.8-30-13-43.4c-0.3-0.5-0.4-0.9-0.4-1.2
			c-2.3-16.7-6.9-33-13.9-48.3c-3.5-7.6-7.5-15-12.1-22.1c-1.2-1.7-2.3-3.5-3.5-5.2l-1.8-2.6l-0.9-1.2c-0.2-0.3-0.4-0.5-0.7-0.7
			c-1.9-1.8-4.7-2.1-7.5-0.8c-0.1,0-0.2,0.1-0.2,0.1c-1.7,0.7-3.5,0.2-4.6-1.2c-5.1-6.3-10.5-12.5-16.4-18c-2.9-2.9-6.1-5.5-9.1-8.2
			c-3.2-2.5-6.4-5.2-9.7-7.5c-6.6-4.8-13.6-9.2-20.8-13.2c-7.2-3.9-14.7-7.4-22.4-10.2l-0.1,0c-0.7-0.3-1.1-0.9-1.1-1.6
			c0.2-2.7-0.2-5.3-1.5-7.2c-0.7-0.9-1.6-1.7-2.7-2.2c-0.6-0.3-1.1-0.5-1.8-0.7l-2-0.6c-5.5-1.5-11-2.8-16.6-3.9
			C491.5,208.5,480.1,207.4,468.8,207.2L468.8,207.2z M468.8,205.5c11.5-0.1,23,0.7,34.3,2.6c5.7,0.9,11.3,2.1,16.9,3.6l2.1,0.6
			c0.8,0.2,1.5,0.5,2.2,0.8c1.5,0.7,2.9,1.7,3.9,3.1c2.1,2.8,2.4,6.2,2.3,9.2l-1.1-1.6l0.1,0c8.1,2.4,15.8,5.7,23.4,9.3
			c7.6,3.6,14.9,7.8,22,12.4c3.6,2.2,6.9,4.8,10.4,7.2c3.3,2.6,6.7,5.1,9.8,8c6.5,5.5,12.3,11.6,18.1,17.9l-4.8-1.1l0.1-0.1
			c2.5-1.1,5.4-1.7,8.4-1.3c3,0.4,5.9,1.8,7.9,3.9c0.5,0.5,1,1.1,1.4,1.7c0.4,0.5,0.6,0.9,1,1.4l1.9,2.7c1.2,1.8,2.4,3.7,3.6,5.5
			c4.6,7.4,8.7,15.2,12.2,23.2c7,16,11.6,33.1,13.7,50.4l-0.4-1.1c8,14.1,12.9,29.8,14.8,45.7c2,15.9,1.1,32.1-1.3,47.8
			c-2.4,15.6-5.5,31.1-10.3,46.4c-2.4,7.6-5.3,15.1-8.6,22.4c-3.4,7.3-7.4,14.3-11.9,21c-4.5,6.7-9.8,13-15.5,18.7
			c-2.8,2.9-5.9,5.5-9,8.2c-1.6,1.3-3.2,2.5-4.8,3.7c-0.8,0.6-1.6,1.2-2.4,1.8l-2.5,1.7c-6.6,4.7-13.8,8.5-21,12l-5.5,2.4l-2.8,1.2
			l-2.8,1.1l-5.6,2.1c-1.9,0.7-3.8,1.2-5.7,1.9c-15.3,4.9-31,7.9-46.8,9.9c-15.8,1.9-31.6,2.7-47.4,2.8c-15.8-0.1-31.7-0.8-47.4-2.7
			c-15.8-1.9-31.5-5-46.8-9.8c-7.7-2.3-15.1-5.4-22.5-8.7c-7.2-3.6-14.4-7.3-21.1-12l-2.5-1.7l-2.4-1.8c-1.6-1.2-3.2-2.4-4.8-3.7
			c-3.1-2.7-6.2-5.3-9-8.2c-5.8-5.7-11-12-15.6-18.7c-4.6-6.7-8.6-13.8-12-21.1c-3.4-7.3-6.2-14.8-8.7-22.5
			c-4.8-15.3-7.9-30.9-10.4-46.4c-2.5-15.7-3.4-31.9-1.4-47.9c1.9-16,6.8-31.8,14.8-45.9l-0.4,1.4c2.1-17.4,6.7-34.6,13.8-50.6
			c3.5-8,7.6-15.8,12.2-23.3c1.2-1.8,2.4-3.7,3.6-5.5l1.9-2.7l0.5-0.7c0.2-0.2,0.3-0.4,0.5-0.8c0.5-0.6,1-1.2,1.5-1.7
			c2.2-2.2,5.2-3.6,8.3-4c3.1-0.4,6.1,0.3,8.7,1.4l-5.5,1.3c5.8-6.3,11.7-12.5,18.2-18c3.1-2.9,6.6-5.4,9.9-8
			c3.5-2.4,6.9-5,10.4-7.2c7.1-4.6,14.5-8.8,22.1-12.4c7.6-3.6,15.4-6.8,23.5-9.2l-1.3,1.9c-0.1-3,0.3-6.5,2.4-9.3
			c1.1-1.4,2.5-2.4,4-3.1c0.7-0.3,1.5-0.6,2.3-0.8l2.1-0.5c5.6-1.4,11.2-2.6,16.9-3.5C445.8,206.2,457.3,205.4,468.8,205.5
			L468.8,205.5z"/>
		<g>
			<path class="st3" d="M629.1,356.1c-28.7-34.7-82.7-52.3-160.4-52.3c-77.7,0-131.6,17.6-160.4,52.3
				c-20.1,24.3-27.3,56.1-21.2,94.4c11.3,71.5,34.6,141.3,181.6,141.3c147,0,170.3-69.8,181.6-141.3
				C656.4,412.1,649.2,380.4,629.1,356.1z"/>
			<path class="st0" d="M468.8,597c-68.2,0-115.8-14.9-145.5-45.4c-26.8-27.6-35.7-64.5-41.3-100.3c-6.3-39.9,1.3-73,22.4-98.5
				c29.8-36,85.1-54.2,164.4-54.2c79.3,0,134.6,18.2,164.4,54.2c21.1,25.5,28.7,58.7,22.4,98.5c-5.6,35.8-14.5,72.7-41.3,100.3
				C584.6,582.1,537,597,468.8,597z M468.8,309c-76,0-128.6,17-156.3,50.4c-19.1,23.1-25.9,53.5-20.1,90.2
				c5.4,34.1,13.7,69.2,38.5,94.7c27.6,28.4,72.7,42.3,138,42.3c65.2,0,110.4-13.8,138-42.3c24.7-25.5,33.1-60.5,38.5-94.7
				c5.8-36.8-1-67.1-20.1-90.2C597.4,325.9,544.8,309,468.8,309z"/>
		</g>
		<g>
			<path class="st3" d="M636,448.1c-8.8,56.7-24.1,105.9-97.4,123.8c-4.6,1.1-9.5-0.7-12.4-4.5c-3.7-4.9-7.3-9.9-10.6-15
				c-5.7-8.5-15.7-13-25.9-11.8c-14,1.7-28.1,1.7-42.1,0c-10.2-1.2-20.2,3.3-25.9,11.8c-3.4,5.1-6.9,10.1-10.6,15
				c-2.9,3.8-7.8,5.6-12.4,4.5c-73.2-17.9-88.5-67-97.3-123.7c-16.2-104.7,74.9-131,167.3-131C561.1,317.1,652.2,343.4,636,448.1z"
				/>
			<path class="st0" d="M535.8,577.4c-5.3,0-10.4-2.5-13.8-6.9c-3.8-5-7.4-10.1-10.8-15.3c-4.6-6.9-12.6-10.5-20.9-9.5
				c-14.4,1.8-29,1.8-43.3,0c-8.3-1-16.3,2.6-20.9,9.5c-3.4,5.1-7,10.2-10.8,15.2c-4.2,5.5-11.2,8-17.8,6.4
				c-78.1-19.1-92.8-73.7-101.2-128c-5.7-36.7,1.2-66.7,20.4-89.1c27.2-31.8,78.4-47.9,152.1-47.9c73.7,0,124.8,16.1,152.1,47.9
				c19.2,22.4,26.1,52.4,20.4,89.1c-8.4,54.3-23.1,109-101.3,128C538.5,577.2,537.2,577.4,535.8,577.4z M493.1,535.1
				c10.8,0,20.8,5.3,26.8,14.3c3.3,5,6.8,9.9,10.5,14.8c1.7,2.2,4.4,3.2,7,2.6c72-17.6,85.3-66.5,93.5-119.5
				c5.2-33.6-0.9-60.7-18-80.7c-25.2-29.4-73.7-44.2-144.1-44.2c-70.5,0-119,14.9-144.1,44.2c-17.1,20-23.2,47.1-18,80.7
				c8.2,52.9,21.5,101.9,93.3,119.5c2.6,0.6,5.4-0.4,7-2.6c3.6-4.8,7.2-9.8,10.4-14.7c6.8-10.2,18.6-15.6,30.8-14.1
				c13.5,1.7,27.3,1.7,40.8,0C490.4,535.2,491.8,535.1,493.1,535.1z"/>
		</g>
		<g>
			<g>
				<path class="st0" d="M494.9,550.2c0.1,3-2.3,5.7-5.4,6c-14.2,1.2-28.5,1.2-42.7,0c-3.3-0.3-5.7-3.1-5.4-6.3
					c-0.7,0.9-1.2,2-1.4,3.2c-0.4,3.3,2.1,6.3,5.6,6.6c15,1.3,30,1.3,44.9,0c3.5-0.3,6-3.3,5.6-6.6C496,552,495.5,551,494.9,550.2z"
					/>
				<path class="st0" d="M496.1,561c0,3-2.4,5.7-5.7,6c-14.8,1.2-29.7,1.2-44.5,0c-3.4-0.3-5.9-3.1-5.7-6.3c-0.8,0.9-1.3,2-1.4,3.2
					c-0.4,3.3,2.2,6.3,5.8,6.6c15.6,1.3,31.2,1.3,46.8,0c3.6-0.3,6.2-3.3,5.8-6.6C497.1,562.8,496.7,561.8,496.1,561z"/>
				<path class="st0" d="M497.2,571.8c0,3-2.5,5.7-5.9,6c-15.4,1.3-30.9,1.3-46.3,0c-3.6-0.3-6.2-3.2-5.9-6.3
					c-0.8,0.9-1.3,2-1.4,3.2c-0.4,3.3,2.4,6.3,6.1,6.7c16.2,1.4,32.5,1.4,48.7,0c3.7-0.3,6.5-3.4,6.1-6.7
					C498.3,573.6,497.9,572.6,497.2,571.8z"/>
			</g>
		</g>
		<g>
			<g>
				<path class="st1" d="M329,277.4c8.6,6.1,16.8,12.7,23.8,20.4c0.3,0.3,0.3,0.9-0.1,1.2c-0.3,0.3-0.7,0.3-1.1,0.1
					c-8.4-5.8-17.5-10.3-26.9-14.1c-2.2-0.9-3.3-3.5-2.4-5.7c0.9-2.2,3.5-3.3,5.7-2.4C328.4,277.1,328.7,277.3,329,277.4z"/>
				<path class="st1" d="M411.5,248.8c-0.4-8.7-0.6-17.4-0.7-26.1c0-0.2,0-0.4,0-0.6c-0.1-0.9-0.6-1.7-1.2-2.4
					c-0.1,4.6-2.6,7-6.8,7.8c1.1,7.3,2.3,14.6,3.6,21.8c1.5,8.6,3.2,17.2,5,25.8c0.1,0.4,0.5,0.7,0.9,0.7c0.5,0,0.9-0.5,0.8-1
					C412.4,266.1,411.8,257.4,411.5,248.8z"/>
			</g>
		</g>
		<g>
			<g>
				<path class="st1" d="M608.5,277.4c-8.6,6.1-16.8,12.7-23.8,20.4c-0.3,0.3-0.3,0.9,0.1,1.2c0.3,0.3,0.7,0.3,1.1,0.1
					c8.4-5.8,17.9-11.2,28.3-15c2.2-0.9,1.9-2.5,0.9-4.7c-0.9-2.2-3.5-3.3-5.7-2.4C609.1,277.1,608.8,277.3,608.5,277.4z"/>
				<path class="st1" d="M526,248.8c0.4-8.7,0.6-17.4,0.7-26.1c0-0.2,0-0.4,0-0.6c0.1-0.9,0.6-1.7,1.2-2.4c0.1,4.6,2.6,7,6.8,7.8
					c-1.1,7.3-2.3,14.6-3.6,21.8c-1.5,8.6-3.2,17.2-5,25.8c-0.1,0.4-0.5,0.7-0.9,0.7c-0.5,0-0.9-0.5-0.8-1
					C525.1,266.1,525.7,257.4,526,248.8z"/>
			</g>
		</g>
		
			<ellipse transform="matrix(0.9985 -5.478039e-02 5.478039e-02 0.9985 -33.1017 19.5397)" class="st3" cx="339.9" cy="613.6" rx="10.3" ry="19.7"/>
		<path class="st0" d="M354.1,618.3c17.8,9,36.7,15.8,56.2,20.3c19.5,4.5,39.6,6.7,59.7,6.5c20.1-0.2,40.1-2.6,59.6-7.1
			c19.5-4.5,38.6-11.1,56.6-19.7l4.9,13c-19.9,5.6-39.9,10.6-60.1,14c-20.2,3.4-40.6,5.3-61.1,5.4c-20.4,0.2-40.9-1.5-61.2-4.8
			c-20.2-3.4-40.2-8.5-60-14.6L354.1,618.3z"/>
		<path class="st0" d="M354.1,629.8c17.8,9,36.7,15.8,56.2,20.3c19.5,4.5,39.6,6.7,59.7,6.5c20.1-0.2,40.1-2.6,59.6-7.1
			c19.5-4.5,38.6-11.1,56.6-19.7l4.9,13c-19.9,5.6-39.9,10.6-60.1,14c-20.2,3.4-40.6,5.3-61.1,5.4c-20.4,0.2-40.9-1.5-61.2-4.8
			c-20.2-3.4-40.2-8.5-60-14.6L354.1,629.8z"/>
		<path class="st0" d="M354.7,638.3c17.5,9.4,36.3,16.4,55.8,21c19.4,4.6,39.5,6.9,59.5,6.7c20-0.1,40-2.7,59.5-7.3
			c19.4-4.7,38.4-11.5,56.2-20.4l3.3,8.8c1.5,4-0.8,8.5-5,9.6c-17.5,4.4-35,8.4-52.7,11.2c-20.3,3.3-40.7,5.1-61.2,5.3
			c-20.5,0.1-41-1.4-61.3-4.7c-18-2.8-35.7-7-53.5-11.9c-3.8-1-5.8-5.1-4.3-8.7L354.7,638.3z"/>
		<path class="st1" d="M283,372.1c0,0,9.7-19.5,27.2-37c0.6-0.6-0.1-1.7-0.9-1.2c-8.9,4.8-17,12.9-26.3,24.7V372.1z"/>
		<path class="st1" d="M655.4,372.1c0,0-9.7-19.5-27.2-37c-0.6-0.6,0.1-1.7,0.9-1.2c8.9,4.8,17,12.9,26.3,24.7V372.1z"/>
		<path class="st0" d="M405.5,641.2c0.9,8.2-2.7,15.3-8.2,15.9c-5.4,0.6-10.6-5.5-11.5-13.7c-0.9-8.2,2.7-15.3,8.2-15.9
			C399.4,626.9,404.6,633.1,405.5,641.2z"/>
		<path class="st3" d="M398.2,639.1c0.4,3.3-1.1,6.2-3.3,6.5c-2.2,0.3-4.3-2.2-4.7-5.6c-0.4-3.3,1.1-6.2,3.3-6.5
			C395.7,633.3,397.8,635.8,398.2,639.1z"/>
		
			<ellipse transform="matrix(0.1127 -0.9936 0.9936 0.1127 -157.4491 1108.3661)" class="st0" cx="541.9" cy="642.3" rx="14.9" ry="9.9"/>
		<path class="st3" d="M539.3,639.1c-0.4,3.3,1.1,6.2,3.3,6.5c2.2,0.3,4.3-2.2,4.7-5.6c0.4-3.3-1.1-6.2-3.3-6.5
			C541.8,633.3,539.7,635.8,539.3,639.1z"/>
		<path class="st0" d="M481.4,651.5c0,8.4-5.7,15.2-12.7,15.2c-7,0-12.7-6.8-12.7-15.2c0-8.4,5.7-15.2,12.7-15.2
			C475.8,636.3,481.4,643.1,481.4,651.5z"/>
		<path class="st3" d="M474.1,648.6c0,3.6-2.4,6.5-5.4,6.5c-3,0-5.4-2.9-5.4-6.5c0-3.6,2.4-6.5,5.4-6.5
			C471.7,642.1,474.1,645,474.1,648.6z"/>
		<g>
			<path class="st3" d="M472.7,300.4c0.4,0.6,0.7,1.2,0.7,2c0,1.8-1.5,3.2-3.2,3.2c-1.8,0-3.2-1.5-3.2-3.2c0-0.8,0.3-1.4,0.7-2
				c-0.8,0.7-1.3,1.7-1.3,2.9c0,2.1,1.7,3.8,3.8,3.8c2.1,0,3.8-1.7,3.8-3.8C474,302.1,473.5,301.1,472.7,300.4z"/>
			<path class="st3" d="M570,313.1c0.4,0.6,0.7,1.2,0.7,2c0,1.8-1.5,3.2-3.2,3.2s-3.2-1.5-3.2-3.2c0-0.8,0.3-1.4,0.7-2
				c-0.8,0.7-1.3,1.7-1.3,2.9c0,2.1,1.7,3.8,3.8,3.8c2.1,0,3.8-1.7,3.8-3.8C571.3,314.8,570.8,313.8,570,313.1z"/>
			<path class="st3" d="M642.7,369.1c0.4,0.6,0.7,1.2,0.7,2c0,1.8-1.5,3.2-3.2,3.2s-3.2-1.5-3.2-3.2c0-0.8,0.3-1.4,0.7-2
				c-0.8,0.7-1.3,1.7-1.3,2.9c0,2.1,1.7,3.8,3.8,3.8c2.1,0,3.8-1.7,3.8-3.8C644,370.8,643.5,369.8,642.7,369.1z"/>
			<path class="st3" d="M650.3,462.1c0.4,0.6,0.7,1.2,0.7,2c0,1.8-1.5,3.2-3.2,3.2s-3.2-1.5-3.2-3.2c0-0.8,0.3-1.4,0.7-2
				c-0.8,0.7-1.3,1.7-1.3,2.9c0,2.1,1.7,3.8,3.8,3.8c2.1,0,3.8-1.7,3.8-3.8C651.6,463.8,651.1,462.8,650.3,462.1z"/>
			<path class="st3" d="M621,535.3c0.4,0.6,0.7,1.2,0.7,2c0,1.8-1.5,3.2-3.2,3.2c-1.8,0-3.2-1.5-3.2-3.2c0-0.8,0.3-1.4,0.7-2
				c-0.8,0.7-1.3,1.7-1.3,2.9c0,2.1,1.7,3.8,3.8,3.8c2.1,0,3.8-1.7,3.8-3.8C622.3,537.1,621.8,536.1,621,535.3z"/>
			<path class="st3" d="M540.1,581.9c0.4,0.6,0.7,1.2,0.7,2c0,1.8-1.5,3.2-3.2,3.2s-3.2-1.5-3.2-3.2c0-0.8,0.3-1.4,0.7-2
				c-0.8,0.7-1.3,1.7-1.3,2.9c0,2.1,1.7,3.8,3.8,3.8c2.1,0,3.8-1.7,3.8-3.8C541.4,583.6,540.9,582.6,540.1,581.9z"/>
			<path class="st3" d="M399.8,581.3c0.4,0.6,0.7,1.2,0.7,2c0,1.8-1.5,3.2-3.2,3.2c-1.8,0-3.2-1.5-3.2-3.2c0-0.8,0.3-1.4,0.7-2
				c-0.8,0.7-1.3,1.7-1.3,2.9c0,2.1,1.7,3.8,3.8,3.8c2.1,0,3.8-1.7,3.8-3.8C401.1,583,400.5,582,399.8,581.3z"/>
			<path class="st3" d="M320.4,533.9c0.4,0.6,0.7,1.2,0.7,2c0,1.8-1.5,3.2-3.2,3.2s-3.2-1.5-3.2-3.2c0-0.8,0.3-1.4,0.7-2
				c-0.8,0.7-1.3,1.7-1.3,2.9c0,2.1,1.7,3.8,3.8,3.8s3.8-1.7,3.8-3.8C321.7,535.6,321.2,534.6,320.4,533.9z"/>
			<path class="st3" d="M291.9,460.3c0.4,0.6,0.7,1.2,0.7,2c0,1.8-1.5,3.2-3.2,3.2c-1.8,0-3.2-1.5-3.2-3.2c0-0.8,0.3-1.4,0.7-2
				c-0.8,0.7-1.3,1.7-1.3,2.9c0,2.1,1.7,3.8,3.8,3.8c2.1,0,3.8-1.7,3.8-3.8C293.2,462,292.7,461,291.9,460.3z"/>
			<path class="st3" d="M300.9,367.3c0.4,0.6,0.7,1.2,0.7,2c0,1.8-1.5,3.2-3.2,3.2c-1.8,0-3.2-1.5-3.2-3.2c0-0.8,0.3-1.4,0.7-2
				c-0.8,0.7-1.3,1.7-1.3,2.9c0,2.1,1.7,3.8,3.8,3.8c2.1,0,3.8-1.7,3.8-3.8C302.2,369,301.7,368,300.9,367.3z"/>
			<path class="st3" d="M365.2,316.8c0.4,0.6,0.7,1.2,0.7,2c0,1.8-1.5,3.2-3.2,3.2c-1.8,0-3.2-1.5-3.2-3.2c0-0.8,0.3-1.4,0.7-2
				c-0.8,0.7-1.3,1.7-1.3,2.9c0,2.1,1.7,3.8,3.8,3.8c2.1,0,3.8-1.7,3.8-3.8C366.5,318.5,366,317.5,365.2,316.8z"/>
			<path class="st3" d="M472.7,300.5c0.4,0.6,0.7,1.2,0.7,2c0,1.8-1.5,3.2-3.2,3.2c-1.8,0-3.2-1.5-3.2-3.2c0-0.8,0.3-1.4,0.7-2
				c-0.8,0.7-1.3,1.7-1.3,2.9c0,2.1,1.7,3.8,3.8,3.8c2.1,0,3.8-1.7,3.8-3.8C474,302.2,473.5,301.2,472.7,300.5z"/>
		</g>
		<path class="st0" d="M297.1,570.5c0,0-9.1,19.3-0.5,34.7c7.1,12.8,31,51.5,125,61.5c-9.8-1.2-53.6-7.8-65.9-46.3
			c-2.7-8.5-2.2-11.6-4.1-20.5C332.5,599.9,311.7,591.8,297.1,570.5z"/>
		<path class="st3" d="M357.9,611.9c1.7,14.3-3.6,26.7-11.9,27.7s-16.4-9.8-18.1-24.1c-1.7-14.3,3.6-26.7,11.9-27.7
			C348.1,586.9,356.2,597.7,357.9,611.9z"/>
		<path class="st0" d="M353.4,613.1c1.6,13.2-2.9,24.5-9.9,25.3c-7,0.8-14-9.1-15.6-22.3s2.9-24.5,9.9-25.3
			C344.9,590,351.8,600,353.4,613.1z"/>
		<path class="st1" d="M340.2,634.7c-0.2,0-0.4,0-0.6,0c-2.5,0.2-4.9,0.4-7.4,0.5c-2.2,0.1-4.4,0.2-6.6,0.2c-2,0.1-4,0.1-6,0
			c-1.9,0-3.9-0.1-5.8-0.1c-2.3-0.1-4.7-0.2-7-0.4c-1.8-0.1-3.5-0.3-5.3-0.5c-2.8-0.3-5.6-0.6-8.3-1.1c-1.7-0.3-3.4-0.6-5.1-0.9
			c-2.7-0.5-5.3-1.1-8-1.8c-1.8-0.5-3.6-1-5.4-1.5c-2.1-0.7-4.1-1.4-6.1-2.2c-0.2-0.1-0.4-0.2-0.6-0.3c-2-0.8-3.9-1.6-5.8-2.5
			c-2-1-3.9-2-5.8-3.1c-2-1.2-3.9-2.5-5.8-3.8c-2.4-1.7-4.7-3.7-6.8-5.8c-1.7-1.6-3.2-3.3-4.7-5.1c-1.3-1.6-2.5-3.2-3.6-5
			c-0.7-1.1-1.4-2.2-2-3.3c-1.1-2-2.1-4-2.9-6.1c-1-2.5-1.8-5.1-2.3-7.7c-0.5-2.5-0.9-5.1-1-7.6c-0.1-2.7-0.1-5.4,0.3-8.1
			c0.3-2.3,0.7-4.7,1.3-7c0.4-1.6,0.9-3.2,1.5-4.7c0.8-2.2,1.8-4.3,2.9-6.4c0.2-0.5,0.5-0.9,0.8-1.4c1-1.8,2.1-3.5,3.3-5.1
			c1.7-2.3,3.6-4.4,5.6-6.4c1.1-1.1,2.3-2.2,3.5-3.2c2.5-2.1,5.3-4,8.2-5.7c1.3-0.8,2.6-1.5,4-2.2c2.6-1.3,5.3-2.4,8.1-3.4
			c1.3-0.4,2.5-0.8,3.8-1.2c2.5-0.7,5-1.3,7.6-1.7c1.5-0.3,3-0.5,4.6-0.6c7.5,9.2,9.7,18.7,9.5,28v11.5c-1.4,0-2.7,0.1-4,0.2
			c-22,1.7-28.5,17.9-10.6,28.1c1.7,1,3.7,1.9,5.9,2.8c0.8,0.3,1.7,0.6,2.6,0.9c1.5,0.5,3.1,1,4.8,1.4c0.1,0,0.2,0,0.2,0.1
			c0.1,0,0.2,0.1,0.3,0.1c1.7,0.4,3.5,0.8,5.4,1.1c0.1,0,0.1,0,0.1,0c0.8,0.2,1.7,0.3,2.5,0.4c0.6,0.1,1.2,0.2,1.9,0.3
			c0.3,0,0.5,0.1,0.7,0.1c1.9,0.3,3.9,0.5,5.9,0.6c0.3,0,0.6,0.1,0.9,0.1c0.8,0.1,1.5,0.1,2.4,0.1c0.6,0,1.2,0.1,1.9,0.1
			c1.4,0.1,2.9,0.1,4.5,0.1c0.5,0,0.9,0,1.2,0c1.4,0,2.8,0,4.2,0c1,0,1.9,0,2.9-0.1c2.1-0.1,4.3-0.2,6.5-0.3
			c1.2-0.1,2.4-0.2,3.6-0.3c0.2,0,0.3,0,0.5,0C350.3,593.8,353.8,633.2,340.2,634.7z"/>
		<g>
			<path class="st3" d="M337.3,598.3l-0.1,0c-0.2,0-0.5,0-0.7,0.1c-1.2,0.1-2.4,0.2-3.5,0.3c-1.8,0.1-3.6,0.2-5.3,0.3l-2.8,0.1
				c-0.5,0-1,0-1.5,0c-0.9,0-1.8,0-2.7,0c-0.3,0-4.2,0-4.2,0c-1.1,0-2.2-0.1-3.2-0.1c-0.7,0-1.3-0.1-1.9-0.1c-0.8,0-1.6-0.1-2.4-0.1
				c-0.4,0-0.8,0-1-0.1c-2.3-0.2-4.3-0.4-6-0.6c-0.2,0-0.4,0-0.7-0.1c-0.7-0.1-1.4-0.2-2.1-0.3l-0.7-0.1c-0.6-0.1-1.1-0.2-1.7-0.3
				c0,0-0.4-0.1-0.4-0.1c-1.9-0.3-3.7-0.7-5.6-1.2l-0.6-0.2c-1.8-0.5-3.5-1-5-1.5c-0.9-0.3-1.9-0.6-2.8-1c-1-0.4-2-0.8-2.9-1.2v0.8
				c0.1,0.1,0.2,0.1,0.3,0.2l0.8,0.5c1.7,0.9,3.6,1.8,5.6,2.5c0.9,0.4,1.8,0.7,2.8,1c1.5,0.5,3.2,1,5,1.5l0.6,0.2
				c1.9,0.4,3.7,0.8,5.6,1.2l0.4,0.1c0.6,0.1,1.1,0.2,1.7,0.3l0.7,0.1c0.6,0.1,1.3,0.2,2,0.3c0.3,0,0.5,0.1,0.7,0.1
				c1.8,0.2,3.7,0.4,6,0.6c0.2,0,0.6,0.1,1,0.1c0.8,0.1,1.6,0.1,2.4,0.1c0.6,0,1.3,0.1,1.9,0.1c1,0,2.1,0.1,3.1,0.1c0,0,3.9,0,4.2,0
				c0.9,0,1.8,0,2.7,0c0.5,0,1,0,1.5,0c0,0,2.8-0.1,2.8-0.1c1.7-0.1,3.5-0.2,5.3-0.3c1.2-0.1,2.3-0.2,3.5-0.3c0.2,0,0.5,0,0.7-0.1
				l0.1,0C340,599.3,338.7,598.3,337.3,598.3z"/>
			<g>
				<path class="st3" d="M281.6,526.6c-0.4-1.1-0.7-2.1-1.1-3.2c-39.8,5.8-58.5,40.6-45.8,69.3C224.7,559.3,246.4,533.2,281.6,526.6
					z"/>
			</g>
		</g>
		<g>
			<g>
				<path class="st1" d="M340.1,634.7c-0.2,0-0.4,0-0.6,0c4.1-2.8,5.7-12.5,4.8-21.7c-1-9.4-4.2-16.7-8-18.2c0.2,0,0.3,0,0.5,0
					C350.2,593.8,353.7,633.2,340.1,634.7z"/>
				<path class="st1" d="M332.1,635.2c-1,2.7-6.6,3.2-6.6,0.2c4.4-2.8,6.8-20.7,4.2-32.8c-1-4.5-2.4-6.9-3.5-7.2
					c-0.4-2,4.5-3.1,6.4-0.3c0.8,1.6,1.6,3.7,2.2,6.4C336.8,610.6,336.5,626.7,332.1,635.2z"/>
				<path class="st1" d="M319.6,635.5c-1.1,3-6.1,2.2-5.8-0.1c0.9-1,2.5-4.5,3.9-12.7c2.2-13.1,1.7-25.2,0.2-27.2
					c-0.1-1.5,3.6-3,5.4,0C325.2,603.7,324,625.4,319.6,635.5z"/>
				<path class="st1" d="M313.4,595.4c-0.1,3.2-0.7,8.8-2.4,19c-0.8,4.9-2.6,14.9-4.3,20.6c-1.2,2-6,2.5-5.3-0.5
					c2.2-6.4,6.7-32.6,6.8-39.4C308.5,593.2,312.7,593.5,313.4,595.4z"/>
				<path class="st1" d="M302.4,594.5c-2.5,5.7-8.7,31.8-9.2,39c-0.7,1.8-5.2,1.3-5.1-0.9c0.5-5.9,2.9-16.1,4-21
					c2.3-9.4,3.8-14.7,5-17.8C297.7,591.7,302.7,592.5,302.4,594.5z"/>
				<path class="st1" d="M291.7,592.6c-2.2,1.7-7.4,12.7-10.3,25.2c-1.8,7.8-1.6,11.6-1.3,12.9c-0.1,1.6-5,1.2-5.4-1.5
					c-0.5-10.6,6.6-30.7,11.6-38.1C288,588.3,292.6,590.7,291.7,592.6z"/>
				<path class="st1" d="M283.7,590.1c-1.4,0-4,2-6.9,6.3c-7.6,10.9-11.3,26.3-8.8,30.3c-1.2,1.7-5.5,0.7-5.8-2.5
					c-0.9-9.2,5.1-23.3,10.3-30.8c1.9-2.8,3.7-4.7,5.3-6C280.4,585.5,284.3,587.4,283.7,590.1z"/>
				<path class="st1" d="M289,557.4c-0.2,0.7-0.4,1.3-0.7,1.9c-0.9,2.3-4,2.3-4.6,0.6c-0.6,1.9-3.1,2.6-4.3,1.1
					c-0.1,1.7-2.5,2.8-3.6,1.5c0.2,1.9-2.2,3.5-3.7,2.3c0.8,1.7-1,3.5-2.7,2.8c1.3,1,0.7,3.3-1.4,2.9c1.3,0.9,1.6,3.4-0.5,3.5
					c1.7,0.4,2.4,2.7,0.9,3.9c2.4-0.4,4.4,3.1,3.6,5.2c3.1-1.2,5.9,1.3,5.9,4.1c-2.5-0.7-6.2,1-10,4.5c-7.9,7.2-13.9,19.8-11.4,29.2
					c-1.6,2-5.5,0-5.8-3.8c-0.3-10.6,6-22.2,13.6-29.2c2.2-2.1,4.5-3.6,6.7-4.6c-0.7-0.6-2.7-0.3-5.1,0.6
					c-8.7,3.5-22.5,16.6-22,27.4c-2.1,2.1-5.5-1.8-4.7-5.1c2.7-11.7,14.9-23.2,24.8-27.2c0.4-0.2,0.7-0.3,1.1-0.4
					c-1-0.1-2.2,0-3.6,0.2c-10.1,1.7-25.6,10.7-27.9,19c-2.2,0.7-4.7-2.9-2.9-6.1c6-9.3,20.7-16.5,30-18.1c0.2,0,0.5-0.1,0.7-0.1
					c-8.5-1.1-22.5,1.5-29.4,6c-1.4,0.9-3.7,2.7-3.6,4.5c-2.4,0-3.9-5.5-1-7.6c0.5-0.4,1.1-0.8,1.7-1.3c7.5-4.8,22.5-8.1,32.8-6.8
					c-2.6-1.4-6.3-2.7-10.7-3.4c-10.4-1.7-20.5-0.1-23.6,3.4c-2.7-0.4-2.5-5.7,1.3-7c6.1-2.5,14.9-2.9,23.1-1.6
					c5.9,1,10.6,2.7,13.9,4.9c-2.6-3.7-8.7-7.3-15.2-9.3c-8.1-2.5-17.4-2.7-20.3,1.3c-3.5-1.5-0.5-7.3,3.7-7.8
					c5.3-1.1,11.9-0.4,18.1,1.5c7.1,2.2,13.8,5.9,17.4,10.5c-1.3-4.8-7.3-11-15.3-15c-5.7-2.9-12.9-4.8-16.9-2.1
					c-2.8-1.6,0.6-6.7,5.6-6.4c4,0.1,8.7,1.4,13.7,3.9c7.2,3.6,13.8,9.2,16.7,15.1c-2.1-8.7-11-19.4-18.9-22.4
					c-3.2-1.2-5.9-1.1-8,0.3c-0.9-2.1,2.3-6.6,8.2-5.7c0.6,0.2,1.2,0.4,1.8,0.6c9.9,3.8,20.2,16.5,22.3,27.1
					c0.3-9-5.9-22.4-13.1-27.7c-2.5-1.8-4.8-2.6-7-2.1c-0.8-2.1,4.2-5.3,8.1-3.4c0.7,0.4,1.3,0.8,2,1.3c8.5,6.3,15.4,21.1,15.2,31.8
					c0-0.1,0.1-0.2,0.1-0.3c2.5-8.6-1.7-24.2-8.3-30.9c-1.7-1.7-3.4-2.7-5.1-3c-0.4-1.9,4.3-4,7.6-1.7c0.4,0.3,0.8,0.7,1.2,1.1
					C287.4,529.4,292.1,546.9,289,557.4z"/>
			</g>
		</g>
		<path class="st3" d="M331.5,596.5c0.9,1.9,1.3,3.8,1.7,5.7c0.3,1.9,0.6,3.8,0.7,5.8c0.3,3.8,0.2,7.7-0.4,11.5
			c0.2-3.8,0-7.7-0.5-11.4c-0.3-1.9-0.6-3.7-1.1-5.6c-0.5-1.8-1.1-3.6-1.9-5.2c-0.3-0.5-0.1-1,0.3-1.2
			C330.7,595.9,331.3,596,331.5,596.5C331.5,596.5,331.5,596.5,331.5,596.5z"/>
		<path class="st3" d="M321.9,597.3c0.4,2,0.5,3.9,0.5,5.9c0,2,0,3.9-0.2,5.8c-0.3,3.9-1,7.7-2,11.5c0.6-3.8,1-7.7,1-11.5
			c0-1.9-0.1-3.8-0.3-5.7c-0.2-1.9-0.5-3.8-0.9-5.6c-0.1-0.5,0.2-1,0.6-1.1C321.3,596.5,321.8,596.7,321.9,597.3
			C321.9,597.2,321.9,597.3,321.9,597.3z"/>
		<path class="st3" d="M311.7,597c-0.4,4-0.8,7.9-1.3,11.8c-0.3,2-0.6,3.9-0.9,5.9c-0.4,1.9-0.7,3.9-1.3,5.8
			c0.4-1.9,0.6-3.9,0.8-5.9c0.2-2,0.4-3.9,0.5-5.9c0.3-3.9,0.4-7.9,0.5-11.8c0-0.5,0.4-0.9,0.9-0.9C311.3,596,311.7,596.4,311.7,597
			C311.7,596.9,311.7,597,311.7,597z"/>
		<path class="st3" d="M300,596c-1.3,3-2.4,6.1-3.4,9.2c-1,3.1-1.8,6.3-2.4,9.6c0.2-3.3,0.8-6.6,1.5-9.8c0.7-3.2,1.6-6.4,2.6-9.6
			c0.2-0.5,0.6-0.7,1.1-0.6C299.9,595,300.2,595.5,300,596C300,596,300,596,300,596z"/>
		<path class="st3" d="M288.8,593.3c-2,2.8-3.8,5.9-5.3,9.1c-1.5,3.2-2.8,6.5-3.8,9.9c0.7-3.5,1.7-6.9,3-10.3
			c1.3-3.3,2.8-6.6,4.7-9.7c0.2-0.4,0.8-0.5,1.2-0.3C288.9,592.3,289.1,592.8,288.8,593.3C288.8,593.3,288.8,593.3,288.8,593.3z"/>
		<path class="st3" d="M279.7,589.9c-1.3,1-2.6,2.3-3.7,3.7c-1.1,1.4-2.2,2.9-3.1,4.4c-0.9,1.5-1.8,3.1-2.6,4.8
			c-0.8,1.6-1.4,3.3-2.1,5c0.4-1.8,1-3.5,1.6-5.2c0.7-1.7,1.4-3.4,2.2-5c0.8-1.6,1.8-3.2,2.8-4.7c1.1-1.5,2.2-3,3.7-4.3
			c0.4-0.3,0.9-0.3,1.2,0.1c0.3,0.4,0.3,0.9-0.1,1.2C279.8,589.9,279.7,589.9,279.7,589.9z"/>
		<path class="st3" d="M273.6,586.5c-1.6,0.4-3.3,1.1-4.8,1.9c-1.5,0.9-3,1.9-4.3,3.1c-1.3,1.2-2.6,2.5-3.7,3.9
			c-1.1,1.4-2.1,2.9-3,4.5c0.7-1.7,1.6-3.3,2.6-4.8c1-1.5,2.2-2.9,3.4-4.3c1.3-1.3,2.7-2.5,4.3-3.5c1.6-1,3.2-1.9,5.1-2.5
			c0.5-0.1,0.9,0.1,1.1,0.6c0.1,0.5-0.1,0.9-0.6,1.1C273.7,586.5,273.6,586.5,273.6,586.5z"/>
		<path class="st3" d="M268.3,581.3c-1.8,0.1-3.7,0.7-5.4,1.4c-1.8,0.7-3.5,1.7-5.1,2.7c-1.6,1.1-3.1,2.3-4.6,3.7
			c-0.7,0.7-1.4,1.4-2.1,2.1l-1.9,2.2c-0.1,0,1.7-2.4,1.7-2.4c0.6-0.7,1.2-1.5,1.9-2.3c1.3-1.5,2.8-2.8,4.4-4.1
			c1.6-1.2,3.3-2.3,5.1-3.2c1.8-0.9,3.7-1.6,5.9-1.9c0.5-0.1,0.9,0.3,1,0.7c0.1,0.5-0.3,0.9-0.7,1
			C268.4,581.3,268.3,581.3,268.3,581.3z"/>
		<path class="st3" d="M265.1,576.7c-1.9,0-4,0.2-6,0.6c-2,0.4-4,0.9-5.9,1.6c-1.9,0.7-3.8,1.5-5.7,2.5c-1.8,0.9-3.6,2.1-5.3,3.3
			c1.6-1.4,3.2-2.6,5-3.7c1.8-1.1,3.7-2,5.6-2.9c1.9-0.8,3.9-1.5,6-2c2.1-0.5,4.1-0.9,6.3-1c0.5,0,0.9,0.3,0.9,0.8
			c0,0.5-0.3,0.9-0.8,0.9C265.2,576.7,265.1,576.7,265.1,576.7z"/>
		<path class="st3" d="M263.8,571.6c-2.7-0.3-5.3-0.5-8-0.5c-2.7,0-5.3,0.2-7.9,0.6c-2.6,0.3-5.2,1-7.8,1.7c-2.5,0.8-5,1.7-7.5,2.7
			c-0.1,0.1-0.3,0-0.4-0.2c-0.1-0.1,0-0.3,0.1-0.4c2.4-1.3,4.8-2.4,7.4-3.3c2.6-0.9,5.2-1.5,7.9-1.8c2.7-0.4,5.4-0.5,8.1-0.3
			c2.7,0.2,5.4,0.6,8,1.2C263.9,571.4,263.9,571.5,263.8,571.6C263.9,571.6,263.8,571.6,263.8,571.6z"/>
		<path class="st3" d="M257.8,564c-4.4-1.4-9-2-13.5-1.9c-4.6,0.1-9.1,0.9-13.4,2.3c-0.5,0.1-1-0.1-1.1-0.6
			c-0.1-0.5,0.1-0.9,0.6-1.1c4.6-1.1,9.3-1.7,13.9-1.6C248.9,561.4,253.5,562.3,257.8,564C257.8,564,257.8,564.1,257.8,564z"/>
		<path class="st3" d="M263.8,559.3c-2.1-1.6-4.3-3.1-6.6-4.4c-2.3-1.3-4.8-2.3-7.3-2.9c-2.5-0.6-5.2-0.9-7.8-0.8
			c-2.6,0.1-5.2,0.6-7.7,1.3c-0.5,0.1-1-0.1-1.1-0.6c-0.1-0.5,0.2-0.9,0.6-1.1c2.7-0.6,5.4-0.9,8.2-0.9c2.7,0,5.4,0.4,8,1.2
			c2.6,0.8,5.1,1.9,7.4,3.3C259.7,555.9,261.8,557.5,263.8,559.3C263.8,559.3,263.8,559.3,263.8,559.3z"/>
		<path class="st3" d="M242.2,539.5c2.3,0.1,4.4,0.5,6.5,1.1c2.1,0.6,4.1,1.3,6.1,2.3c1.9,1,3.8,2,5.5,3.3c1.8,1.2,3.4,2.6,4.9,4.1
			c-1.7-1.3-3.4-2.6-5.2-3.7c-1.8-1.1-3.7-2-5.6-2.8c-1.9-0.8-4-1.4-6-1.8c-2-0.4-4.2-0.7-6.1-0.6c-0.5,0-0.9-0.4-1-0.8
			C241.3,539.9,241.7,539.5,242.2,539.5C242.2,539.5,242.2,539.5,242.2,539.5z"/>
		<path class="st3" d="M252.1,530.4c2.2,0.3,4,1,5.8,1.9c1.8,0.9,3.5,2,5,3.2c1.5,1.3,2.9,2.7,4.2,4.2c0.7,0.7,1.2,1.6,1.8,2.3
			l1.6,2.4c-0.1,0-1.8-2.3-1.8-2.3c-0.7-0.7-1.3-1.5-1.9-2.2c-1.3-1.4-2.8-2.6-4.4-3.8c-1.6-1.1-3.2-2-5-2.7
			c-1.7-0.7-3.6-1.2-5.4-1.3c-0.6,0-0.9-0.4-0.9-0.9C251.2,530.7,251.6,530.4,252.1,530.4C252.1,530.4,252.1,530.4,252.1,530.4z"/>
		<path class="st3" d="M263.1,523.8c2,0.6,3.6,1.6,5.1,2.8c1.5,1.2,2.9,2.5,4.1,4c1.2,1.5,2.2,3,3.1,4.7c0.5,0.8,0.8,1.7,1.2,2.5
			l1.1,2.6c-0.1,0-1.3-2.4-1.3-2.4c-0.5-0.8-0.9-1.6-1.4-2.4c-1-1.5-2.1-3-3.4-4.3c-1.3-1.3-2.6-2.5-4.1-3.5c-1.5-1-3.2-1.8-4.7-2.1
			c-0.6-0.1-0.9-0.6-0.8-1.1C262.1,524,262.6,523.7,263.1,523.8C263.1,523.8,263.1,523.8,263.1,523.8z"/>
		<path class="st3" d="M274.9,520.4c1.8,0.8,2.8,1.9,3.8,3.2c1,1.2,1.8,2.6,2.5,4c0.7,1.4,1.3,2.8,1.8,4.3c0.5,1.4,0.9,2.9,1.3,4.4
			c-0.6-1.4-1.1-2.8-1.7-4.2c-0.6-1.4-1.3-2.7-2.1-4c-0.8-1.3-1.7-2.5-2.7-3.5c-0.5-0.5-1-1-1.6-1.4c-0.5-0.4-1.2-0.8-1.7-0.9
			l-0.1,0c-0.5-0.1-0.8-0.6-0.6-1.1c0.1-0.5,0.6-0.8,1.1-0.6C274.8,520.3,274.8,520.3,274.9,520.4z"/>
		<path class="st0" d="M640.4,570.5c0,0,9.1,19.3,0.5,34.7c-7.1,12.8-33,49.6-125,61.5c13.4-2.6,54.2-4.2,65.9-46.3
			c2.4-8.6,2.2-11.6,4.1-20.5C605,599.9,625.8,591.8,640.4,570.5z"/>
		
			<ellipse transform="matrix(0.118 -0.993 0.993 0.118 -84.9635 1131.8051)" class="st3" cx="594.6" cy="613.7" rx="26.1" ry="15.1"/>
		<path class="st0" d="M584.1,613.1c-1.6,13.2,2.9,24.5,9.9,25.3c7,0.8,14-9.1,15.6-22.3c1.6-13.2-2.9-24.5-9.9-25.3
			C592.6,590,585.7,600,584.1,613.1z"/>
		<path class="st1" d="M597.3,634.7c0.2,0,0.4,0,0.6,0c2.5,0.2,4.9,0.4,7.4,0.5c2.2,0.1,4.4,0.2,6.6,0.2c2,0.1,4,0.1,6,0
			c1.9,0,3.9-0.1,5.8-0.1c2.3-0.1,4.7-0.2,7-0.4c1.8-0.1,3.5-0.3,5.3-0.5c2.8-0.3,5.6-0.6,8.3-1.1c1.7-0.3,3.4-0.6,5.1-0.9
			c2.7-0.5,5.3-1.1,8-1.8c1.8-0.5,3.6-1,5.4-1.5c2.1-0.7,4.1-1.4,6.1-2.2c0.2-0.1,0.4-0.2,0.6-0.3c2-0.8,3.9-1.6,5.8-2.5
			c2-1,3.9-2,5.8-3.1c2-1.2,3.9-2.5,5.8-3.8c2.4-1.7,4.7-3.7,6.8-5.8c1.7-1.6,3.2-3.3,4.7-5.1c1.3-1.6,2.5-3.2,3.6-5
			c0.7-1.1,1.4-2.2,2-3.3c1.1-2,2.1-4,2.9-6.1c1-2.5,1.8-5.1,2.3-7.7c0.5-2.5,0.9-5.1,1-7.6c0.1-2.7,0.1-5.4-0.3-8.1
			c-0.3-2.3-0.7-4.7-1.3-7c-0.4-1.6-0.9-3.2-1.5-4.7c-0.8-2.2-1.8-4.3-2.9-6.4c-0.2-0.5-0.5-0.9-0.8-1.4c-1-1.8-2.1-3.5-3.3-5.1
			c-1.7-2.3-3.6-4.4-5.6-6.4c-1.1-1.1-2.3-2.2-3.5-3.2c-2.5-2.1-5.3-4-8.2-5.7c-1.3-0.8-2.6-1.5-4-2.2c-2.6-1.3-5.3-2.4-8.1-3.4
			c-1.3-0.4-2.5-0.8-3.8-1.2c-2.5-0.7-5-1.3-7.6-1.7c-1.5-0.3-3-0.5-4.6-0.6c-7.5,9.2-9.7,18.7-9.5,28v11.5c1.4,0,2.7,0.1,4,0.2
			c22,1.7,28.5,17.9,10.6,28.1c-1.7,1-3.7,1.9-5.9,2.8c-0.8,0.3-1.7,0.6-2.6,0.9c-1.5,0.5-3.1,1-4.8,1.4c-0.1,0-0.2,0-0.2,0.1
			c-0.1,0-0.2,0.1-0.3,0.1c-1.7,0.4-3.5,0.8-5.4,1.1c-0.1,0-0.1,0-0.1,0c-0.8,0.2-1.7,0.3-2.5,0.4c-0.6,0.1-1.2,0.2-1.9,0.3
			c-0.3,0-0.5,0.1-0.7,0.1c-1.9,0.3-3.9,0.5-5.9,0.6c-0.3,0-0.6,0.1-0.9,0.1c-0.8,0.1-1.5,0.1-2.4,0.1c-0.6,0-1.2,0.1-1.9,0.1
			c-1.4,0.1-2.9,0.1-4.5,0.1c-0.5,0-0.9,0-1.2,0c-1.4,0-2.8,0-4.2,0c-1,0-1.9,0-2.9-0.1c-2.1-0.1-4.3-0.2-6.5-0.3
			c-1.2-0.1-2.4-0.2-3.6-0.3c-0.2,0-0.3,0-0.5,0C587.2,593.8,583.7,633.2,597.3,634.7z"/>
		<g>
			<path class="st3" d="M600.2,598.3l0.1,0c0.2,0,0.5,0,0.7,0.1c1.2,0.1,2.4,0.2,3.5,0.3c1.8,0.1,3.6,0.2,5.3,0.3l2.8,0.1
				c0.5,0,1,0,1.5,0c0.9,0,1.8,0,2.7,0c0.3,0,4.2,0,4.2,0c1.1,0,2.2-0.1,3.2-0.1c0.7,0,1.3-0.1,1.9-0.1c0.8,0,1.6-0.1,2.4-0.1
				c0.4,0,0.8,0,1-0.1c2.3-0.2,4.3-0.4,6-0.6c0.2,0,0.4,0,0.7-0.1c0.7-0.1,1.4-0.2,2.1-0.3l0.7-0.1c0.6-0.1,1.1-0.2,1.7-0.3
				c0,0,0.4-0.1,0.4-0.1c1.9-0.3,3.7-0.7,5.6-1.2l0.6-0.2c1.8-0.5,3.5-1,5-1.5c0.9-0.3,1.9-0.6,2.8-1c1-0.4,2-0.8,2.9-1.2v0.8
				c-0.1,0.1-0.2,0.1-0.3,0.2l-0.8,0.5c-1.7,0.9-3.6,1.8-5.6,2.5c-0.9,0.4-1.8,0.7-2.8,1c-1.5,0.5-3.2,1-5,1.5l-0.6,0.2
				c-1.9,0.4-3.7,0.8-5.6,1.2l-0.4,0.1c-0.6,0.1-1.1,0.2-1.7,0.3l-0.7,0.1c-0.6,0.1-1.3,0.2-2,0.3c-0.3,0-0.5,0.1-0.7,0.1
				c-1.8,0.2-3.7,0.4-6,0.6c-0.2,0-0.6,0.1-1,0.1c-0.8,0.1-1.6,0.1-2.4,0.1c-0.6,0-1.3,0.1-1.9,0.1c-1,0-2.1,0.1-3.1,0.1
				c0,0-3.9,0-4.2,0c-0.9,0-1.8,0-2.7,0c-0.5,0-1,0-1.5,0c0,0-2.8-0.1-2.8-0.1c-1.7-0.1-3.5-0.2-5.3-0.3c-1.2-0.1-2.3-0.2-3.5-0.3
				c-0.2,0-0.5,0-0.7-0.1l-0.1,0C597.5,599.3,598.8,598.3,600.2,598.3z"/>
			<g>
				<path class="st3" d="M655.9,526.6c0.4-1.1,0.7-2.1,1.1-3.2c39.8,5.8,58.5,40.6,45.8,69.3C712.8,559.3,691.1,533.2,655.9,526.6z"
					/>
			</g>
		</g>
		<g>
			<g>
				<path class="st1" d="M597.4,634.7c0.2,0,0.4,0,0.6,0c-4.1-2.8-5.7-12.5-4.8-21.7c1-9.4,4.2-16.7,8-18.2c-0.2,0-0.3,0-0.5,0
					C587.3,593.8,583.8,633.2,597.4,634.7z"/>
				<path class="st1" d="M605.4,635.2c1,2.7,6.6,3.2,6.6,0.2c-4.4-2.8-6.8-20.7-4.2-32.8c1-4.5,2.4-6.9,3.5-7.2
					c0.4-2-4.5-3.1-6.4-0.3c-0.8,1.6-1.6,3.7-2.2,6.4C600.7,610.6,601,626.7,605.4,635.2z"/>
				<path class="st1" d="M617.9,635.5c1.1,3,6.1,2.2,5.8-0.1c-0.9-1-2.5-4.5-3.9-12.7c-2.2-13.1-1.7-25.2-0.2-27.2
					c0.1-1.5-3.6-3-5.4,0C612.3,603.7,613.5,625.4,617.9,635.5z"/>
				<path class="st1" d="M624.1,595.4c0.1,3.2,0.7,8.8,2.4,19c0.8,4.9,2.6,14.9,4.3,20.6c1.2,2,6,2.5,5.3-0.5
					c-2.2-6.4-6.7-32.6-6.8-39.4C629,593.2,624.8,593.5,624.1,595.4z"/>
				<path class="st1" d="M635.1,594.5c2.5,5.7,8.7,31.8,9.2,39c0.7,1.8,5.2,1.3,5.1-0.9c-0.5-5.9-2.9-16.1-4-21
					c-2.3-9.4-3.8-14.7-5-17.8C639.8,591.7,634.8,592.5,635.1,594.5z"/>
				<path class="st1" d="M645.8,592.6c2.2,1.7,7.4,12.7,10.3,25.2c1.8,7.8,1.6,11.6,1.3,12.9c0.1,1.6,5,1.2,5.4-1.5
					c0.5-10.6-6.6-30.7-11.6-38.1C649.5,588.3,644.9,590.7,645.8,592.6z"/>
				<path class="st1" d="M653.8,590.1c1.4,0,4,2,6.9,6.3c7.6,10.9,11.3,26.3,8.8,30.3c1.2,1.7,5.5,0.7,5.8-2.5
					c0.9-9.2-5.1-23.3-10.3-30.8c-1.9-2.8-3.7-4.7-5.3-6C657.1,585.5,653.2,587.4,653.8,590.1z"/>
				<path class="st1" d="M648.5,557.4c0.2,0.7,0.4,1.3,0.7,1.9c0.9,2.3,4,2.3,4.6,0.6c0.6,1.9,3.1,2.6,4.3,1.1
					c0.1,1.7,2.5,2.8,3.6,1.5c-0.2,1.9,2.2,3.5,3.7,2.3c-0.8,1.7,1,3.5,2.7,2.8c-1.3,1-0.7,3.3,1.4,2.9c-1.3,0.9-1.6,3.4,0.5,3.5
					c-1.7,0.4-2.4,2.7-0.9,3.9c-2.4-0.4-4.4,3.1-3.6,5.2c-3.1-1.2-5.9,1.3-5.9,4.1c2.5-0.7,6.2,1,10,4.5
					c7.9,7.2,13.9,19.8,11.4,29.2c1.6,2,5.5,0,5.8-3.8c0.3-10.6-6-22.2-13.6-29.2c-2.2-2.1-4.5-3.6-6.7-4.6c0.7-0.6,2.7-0.3,5.1,0.6
					c8.7,3.5,22.5,16.6,22,27.4c2.1,2.1,5.5-1.8,4.7-5.1c-2.7-11.7-14.9-23.2-24.8-27.2c-0.4-0.2-0.7-0.3-1.1-0.4
					c1-0.1,2.2,0,3.6,0.2c10.1,1.7,25.6,10.7,27.9,19c2.2,0.7,4.7-2.9,2.9-6.1c-6-9.3-20.7-16.5-30-18.1c-0.2,0-0.5-0.1-0.7-0.1
					c8.5-1.1,22.5,1.5,29.4,6c1.4,0.9,3.7,2.7,3.6,4.5c2.4,0,3.9-5.5,1-7.6c-0.5-0.4-1.1-0.8-1.7-1.3c-7.5-4.8-22.5-8.1-32.8-6.8
					c2.6-1.4,6.3-2.7,10.7-3.4c10.4-1.7,20.5-0.1,23.6,3.4c2.7-0.4,2.5-5.7-1.3-7c-6.1-2.5-14.9-2.9-23.1-1.6
					c-5.9,1-10.6,2.7-13.9,4.9c2.6-3.7,8.7-7.3,15.2-9.3c8.1-2.5,17.4-2.7,20.3,1.3c3.5-1.5,0.5-7.3-3.7-7.8
					c-5.3-1.1-11.9-0.4-18.1,1.5c-7.1,2.2-13.8,5.9-17.4,10.5c1.3-4.8,7.3-11,15.3-15c5.7-2.9,12.9-4.8,16.9-2.1
					c2.8-1.6-0.6-6.7-5.6-6.4c-4,0.1-8.7,1.4-13.7,3.9c-7.2,3.6-13.8,9.2-16.7,15.1c2.1-8.7,11-19.4,18.9-22.4
					c3.2-1.2,5.9-1.1,8,0.3c0.9-2.1-2.3-6.6-8.2-5.7c-0.6,0.2-1.2,0.4-1.8,0.6c-9.9,3.8-20.2,16.5-22.3,27.1
					c-0.3-9,5.9-22.4,13.1-27.7c2.5-1.8,4.8-2.6,7-2.1c0.8-2.1-4.2-5.3-8.1-3.4c-0.7,0.4-1.3,0.8-2,1.3
					c-8.5,6.3-15.4,21.1-15.2,31.8c0-0.1-0.1-0.2-0.1-0.3c-2.5-8.6,1.7-24.2,8.3-30.9c1.7-1.7,3.4-2.7,5.1-3c0.4-1.9-4.3-4-7.6-1.7
					c-0.4,0.3-0.8,0.7-1.2,1.1C650.1,529.4,645.4,546.9,648.5,557.4z"/>
			</g>
		</g>
		<path class="st3" d="M606,596.5c-0.9,1.9-1.3,3.8-1.7,5.7c-0.3,1.9-0.6,3.8-0.7,5.8c-0.3,3.8-0.2,7.7,0.4,11.5
			c-0.2-3.8,0-7.7,0.5-11.4c0.3-1.9,0.6-3.7,1.1-5.6c0.5-1.8,1.1-3.6,1.9-5.2c0.3-0.5,0.1-1-0.3-1.2
			C606.8,595.9,606.2,596,606,596.5C606,596.5,606,596.5,606,596.5z"/>
		<path class="st3" d="M615.6,597.3c-0.3,2-0.5,3.9-0.5,5.9c0,2,0,3.9,0.2,5.8c0.3,3.9,1,7.7,2,11.5c-0.6-3.8-1-7.7-1-11.5
			c0-1.9,0.1-3.8,0.3-5.7c0.2-1.9,0.5-3.8,0.9-5.6c0.1-0.5-0.2-1-0.6-1.1C616.2,596.5,615.7,596.7,615.6,597.3
			C615.6,597.2,615.6,597.3,615.6,597.3z"/>
		<path class="st3" d="M625.8,597c0.4,4,0.8,7.9,1.3,11.8c0.3,2,0.6,3.9,0.9,5.9c0.4,1.9,0.7,3.9,1.3,5.8c-0.4-1.9-0.6-3.9-0.8-5.9
			c-0.2-2-0.4-3.9-0.5-5.9c-0.3-3.9-0.4-7.9-0.5-11.8c0-0.5-0.4-0.9-0.9-0.9C626.2,596,625.8,596.4,625.8,597
			C625.8,596.9,625.8,597,625.8,597z"/>
		<path class="st3" d="M637.5,596c1.3,3,2.4,6.1,3.4,9.2c1,3.1,1.8,6.3,2.4,9.6c-0.2-3.3-0.8-6.6-1.5-9.8c-0.7-3.2-1.6-6.4-2.6-9.6
			c-0.2-0.5-0.6-0.7-1.1-0.6C637.6,595,637.3,595.5,637.5,596C637.5,596,637.5,596,637.5,596z"/>
		<path class="st3" d="M648.7,593.3c2,2.8,3.8,5.9,5.3,9.1c1.5,3.2,2.8,6.5,3.8,9.9c-0.7-3.5-1.7-6.9-3-10.3
			c-1.3-3.3-2.8-6.6-4.7-9.7c-0.2-0.4-0.8-0.5-1.2-0.3C648.6,592.3,648.4,592.8,648.7,593.3C648.7,593.3,648.7,593.3,648.7,593.3z"
			/>
		<path class="st3" d="M657.8,589.9c1.3,1,2.6,2.3,3.7,3.7c1.1,1.4,2.2,2.9,3.1,4.4c0.9,1.5,1.8,3.1,2.6,4.8c0.8,1.6,1.4,3.3,2.1,5
			c-0.4-1.8-1-3.5-1.6-5.2c-0.7-1.7-1.4-3.4-2.2-5c-0.8-1.6-1.8-3.2-2.8-4.7c-1.1-1.5-2.2-3-3.7-4.3c-0.4-0.3-0.9-0.3-1.2,0.1
			c-0.3,0.4-0.3,0.9,0.1,1.2C657.7,589.9,657.8,589.9,657.8,589.9z"/>
		<path class="st3" d="M663.9,586.5c1.6,0.4,3.3,1.1,4.8,1.9c1.5,0.9,3,1.9,4.3,3.1c1.3,1.2,2.6,2.5,3.7,3.9c1.1,1.4,2.1,2.9,3,4.5
			c-0.7-1.7-1.6-3.3-2.6-4.8c-1-1.5-2.2-2.9-3.4-4.3c-1.3-1.3-2.7-2.5-4.3-3.5c-1.6-1-3.2-1.9-5.1-2.5c-0.5-0.1-0.9,0.1-1.1,0.6
			c-0.1,0.5,0.1,0.9,0.6,1.1C663.8,586.5,663.9,586.5,663.9,586.5z"/>
		<path class="st3" d="M669.2,581.3c1.8,0.1,3.7,0.7,5.4,1.4c1.8,0.7,3.5,1.7,5.1,2.7c1.6,1.1,3.1,2.3,4.6,3.7
			c0.7,0.7,1.4,1.4,2.1,2.1l1.9,2.2c0.1,0-1.7-2.4-1.7-2.4c-0.6-0.7-1.2-1.5-1.9-2.3c-1.3-1.5-2.8-2.8-4.4-4.1
			c-1.6-1.2-3.3-2.3-5.1-3.2c-1.8-0.9-3.7-1.6-5.9-1.9c-0.5-0.1-0.9,0.3-1,0.7s0.3,0.9,0.7,1C669.1,581.3,669.2,581.3,669.2,581.3z"
			/>
		<path class="st3" d="M672.4,576.7c1.9,0,4,0.2,6,0.6c2,0.4,4,0.9,5.9,1.6c1.9,0.7,3.8,1.5,5.7,2.5c1.8,0.9,3.6,2.1,5.3,3.3
			c-1.6-1.4-3.2-2.6-5-3.7c-1.8-1.1-3.7-2-5.6-2.9c-1.9-0.8-3.9-1.5-6-2c-2.1-0.5-4.1-0.9-6.3-1c-0.5,0-0.9,0.3-0.9,0.8
			c0,0.5,0.3,0.9,0.8,0.9C672.3,576.7,672.4,576.7,672.4,576.7z"/>
		<path class="st3" d="M673.7,571.6c2.7-0.3,5.3-0.5,8-0.5c2.7,0,5.3,0.2,7.9,0.6c2.6,0.3,5.2,1,7.8,1.7c2.5,0.8,5,1.7,7.5,2.7
			c0.1,0.1,0.3,0,0.4-0.2c0.1-0.1,0-0.3-0.1-0.4c-2.4-1.3-4.8-2.4-7.4-3.3c-2.6-0.9-5.2-1.5-7.9-1.8c-2.7-0.4-5.4-0.5-8.1-0.3
			c-2.7,0.2-5.4,0.6-8,1.2C673.6,571.4,673.6,571.5,673.7,571.6C673.6,571.6,673.7,571.6,673.7,571.6z"/>
		<path class="st3" d="M679.7,564c4.4-1.4,9-2,13.5-1.9c4.6,0.1,9.1,0.9,13.4,2.3c0.5,0.1,1-0.1,1.1-0.6c0.1-0.5-0.1-0.9-0.6-1.1
			c-4.6-1.1-9.3-1.7-13.9-1.6C688.6,561.4,684,562.3,679.7,564C679.7,564,679.7,564.1,679.7,564z"/>
		<path class="st3" d="M673.7,559.3c2.1-1.6,4.3-3.1,6.6-4.4c2.3-1.3,4.8-2.3,7.3-2.9c2.5-0.6,5.2-0.9,7.8-0.8
			c2.6,0.1,5.2,0.6,7.7,1.3c0.5,0.1,1-0.1,1.1-0.6c0.1-0.5-0.2-0.9-0.6-1.1c-2.7-0.6-5.4-0.9-8.2-0.9c-2.7,0-5.4,0.4-8,1.2
			c-2.6,0.8-5.1,1.9-7.4,3.3C677.8,555.9,675.7,557.5,673.7,559.3C673.7,559.3,673.7,559.3,673.7,559.3z"/>
		<path class="st3" d="M695.3,539.5c-2.3,0.1-4.4,0.5-6.5,1.1c-2.1,0.6-4.1,1.3-6.1,2.3c-1.9,1-3.8,2-5.5,3.3
			c-1.8,1.2-3.4,2.6-4.9,4.1c1.7-1.3,3.4-2.6,5.2-3.7c1.8-1.1,3.7-2,5.6-2.8c1.9-0.8,4-1.4,6-1.8c2-0.4,4.2-0.7,6.1-0.6
			c0.5,0,0.9-0.4,1-0.8C696.2,539.9,695.8,539.5,695.3,539.5C695.3,539.5,695.3,539.5,695.3,539.5z"/>
		<path class="st3" d="M685.4,530.4c-2.2,0.3-4,1-5.8,1.9c-1.8,0.9-3.5,2-5,3.2c-1.5,1.3-2.9,2.7-4.2,4.2c-0.7,0.7-1.2,1.6-1.8,2.3
			l-1.6,2.4c0.1,0,1.8-2.3,1.8-2.3c0.7-0.7,1.3-1.5,1.9-2.2c1.3-1.4,2.8-2.6,4.4-3.8c1.6-1.1,3.2-2,5-2.7c1.7-0.7,3.6-1.2,5.4-1.3
			c0.6,0,0.9-0.4,0.9-0.9C686.3,530.7,685.9,530.4,685.4,530.4C685.4,530.4,685.4,530.4,685.4,530.4z"/>
		<path class="st3" d="M674.4,523.8c-2,0.6-3.6,1.6-5.1,2.8c-1.5,1.2-2.9,2.5-4.1,4c-1.2,1.5-2.2,3-3.1,4.7
			c-0.5,0.8-0.8,1.7-1.2,2.5l-1.1,2.6c0.1,0,1.3-2.4,1.3-2.4c0.5-0.8,0.9-1.6,1.4-2.4c1-1.5,2.1-3,3.4-4.3c1.3-1.3,2.6-2.5,4.1-3.5
			c1.5-1,3.2-1.8,4.7-2.1c0.6-0.1,0.9-0.6,0.7-1.1C675.4,524,674.9,523.7,674.4,523.8C674.4,523.8,674.4,523.8,674.4,523.8z"/>
		<path class="st3" d="M662.6,520.4c-1.8,0.8-2.8,1.9-3.8,3.2c-1,1.2-1.8,2.6-2.5,4c-0.7,1.4-1.3,2.8-1.8,4.3
			c-0.5,1.4-0.9,2.9-1.3,4.4c0.6-1.4,1.1-2.8,1.7-4.2c0.6-1.4,1.3-2.7,2.1-4c0.8-1.3,1.7-2.5,2.7-3.5c0.5-0.5,1-1,1.6-1.4
			c0.5-0.4,1.2-0.8,1.7-0.9l0.1,0c0.5-0.1,0.8-0.6,0.6-1.1c-0.1-0.5-0.6-0.8-1.1-0.6C662.7,520.3,662.7,520.3,662.6,520.4z"/>
		<path class="st0" d="M550.4,298.3c-13.4-2.9-27-5-40.6-6.3c-13.6-1.3-27.3-2-41-1.9l-10.3,0.1l-10.3,0.4l-10.2,0.6l-10.2,0.9
			c-13.6,1.4-27.2,3.3-40.7,6.1c-0.2,0-0.3-0.1-0.4-0.3c0-0.2,0.1-0.3,0.2-0.4c13.1-4.2,26.7-7.2,40.4-9.2l10.3-1.3l10.4-0.9
			l10.4-0.5c3.5-0.1,6.9-0.2,10.4-0.2c13.9,0,27.7,0.8,41.4,2.8c13.7,1.9,27.3,4.9,40.4,9.2c0.2,0.1,0.3,0.3,0.3,0.5
			C550.8,298.2,550.6,298.4,550.4,298.3z"/>
		<path class="st0" d="M516.9,282.1c-8-0.4-16-0.8-23.9-1c-8-0.2-15.9-0.4-23.8-0.4c-2,0-4,0-6,0l-6,0.1l-6,0.1c-2,0.1-4,0.1-6,0.2
			l-23.9,0.9c-0.2,0-0.3-0.1-0.3-0.3c0-0.2,0.1-0.3,0.2-0.3c7.8-1.9,15.8-3.2,23.8-4c4-0.4,8-0.7,12-1c4-0.2,8-0.3,12.1-0.3
			c8,0,16.1,0.4,24.1,1.2c8,0.8,16,2,23.8,3.9c0.2,0.1,0.4,0.3,0.3,0.5C517.2,281.9,517.1,282.1,516.9,282.1z"/>
		<g>
			<path class="st3" d="M380.8,237.9c1.8,2.6,5.9,5,1.8,10c-1.9,2.3-2.8,1-3.4-0.9C377.9,243.2,381.2,243,380.8,237.9z"/>
		</g>
		<path class="st1" d="M386.1,239.4c-3.6-4.2-5.5-6.2-5.5-6.2l-9.4,5.2c-3.8,1.3-7.9,3.3-11.9,6c-4.3,2.9-7.8,6.3-10.3,9.6l-8.6,5.5
			c0.1,0.8,2.6,4.7,2.6,4.7c0,0.1,2.4,4,2.5,4.1c3.7,5.3,15.9,3.3,27.2-4.6C384.3,255.7,390.6,244.6,386.1,239.4z"/>
		<path class="st1" d="M385.5,240c-1.8-2.1-3.5-4.2-5.5-6.2l0.9,0.1l-9.2,5.6c0,0-0.1,0-0.1,0.1l-0.1,0c-4.2,1.6-8,3.9-11.6,6.6
			c-3.5,2.7-6.7,5.8-9.2,9.3c-0.2,0.2-0.3,0.4-0.5,0.5c0,0-8.7,5.5-8.7,5.5l1-2.3c-0.1-0.3,0-0.1,0-0.1l0.1,0.2l0.3,0.5l0.6,1.1
			l0.7,1.1l0.3,0.5l0.2,0.3l0.1,0.1c0,0-0.2-0.2-0.2-0.2c-0.3-0.3-0.7-0.6-1.3-0.7c-0.6-0.1-1,0-1.3,0.2c-0.1,0.1-0.2,0.1-0.3,0.2
			l3.2,0.7l2,3.4c0.4,0.7,0.6,0.9,0.9,1.2c0.3,0.3,0.7,0.6,1.1,0.8c1.8,0.9,4.4,1,6.8,0.6c5-0.7,9.9-2.8,14.4-5.5
			c4.5-2.7,8.7-6.1,12-10.2c1.6-2,3.1-4.2,3.9-6.6C386.9,244.5,387,241.8,385.5,240z M386.7,238.9c1,1.1,1.7,2.7,1.8,4.2
			c0.1,1.5-0.1,3-0.5,4.4c-0.8,2.8-2.3,5.2-4,7.5c-3.3,4.5-7.6,8.2-12.2,11.3c-4.6,3.1-9.7,5.6-15.5,6.7c-2.8,0.5-5.9,0.7-9.2-0.6
			c-0.8-0.3-1.6-0.8-2.3-1.4c-0.7-0.6-1.3-1.4-1.6-1.9l-2.3-3.5l3.2,0.7c-0.1,0.1-0.2,0.1-0.3,0.2c-0.3,0.1-0.8,0.3-1.3,0.2
			c-0.6-0.1-1-0.4-1.3-0.7l-0.2-0.2l-0.1-0.1l-0.1-0.1l-0.1-0.1l-0.1-0.2l-0.2-0.3l-0.4-0.6l-0.7-1.2l-0.7-1.2l-0.4-0.7l-0.2-0.4
			c-0.1-0.2-0.1-0.3-0.2-0.8c-0.2-0.9,0.2-1.8,1-2.3c0.1,0,8.7-5.6,8.7-5.6l-0.6,0.5c3.1-3.7,6.9-6.8,10.8-9.4c4-2.6,8.3-4.7,12.8-6
			l-0.2,0.1l9.6-4.8c0.3-0.2,0.7-0.1,0.9,0.1l2.8,3.1L386.7,238.9z"/>
		<g>
			<path class="st3" d="M377.9,231c-5-2.4-14.8,0-24,6.4c-11,7.6-17,17.9-13.4,23.1c3.6,5.2,15.4,3.2,26.3-4.4
				c11-7.6,17-17.9,13.4-23.1C379.7,232.1,378.9,231.4,377.9,231L377.9,231z"/>
		</g>
		<g>
			<g>
				<path class="st1" d="M377.6,231.6c-2-1-4.4-1.1-6.7-0.7c-2.3,0.3-4.6,1.1-6.7,2c-4.3,1.8-8.3,4.5-11.8,7.5
					c-3.5,3-6.7,6.5-8.9,10.4c-1.1,1.9-1.8,4-1.9,5.8c-0.1,0.5,0,0.9,0.1,1.3c0.1,0.4,0.2,0.8,0.4,1.1c0.4,0.7,0.9,1.2,1.7,1.6
					c1.6,0.9,3.8,0.9,6,0.7c2.2-0.2,4.4-0.8,6.6-1.6c4.3-1.6,8.5-3.9,12.2-6.7c3.7-2.8,7.1-6.1,9.6-10c1.2-1.9,2.1-4.1,2.3-6.3
					C380.6,234.6,379.6,232.5,377.6,231.6c-0.3-0.2-0.5-0.6-0.3-0.9c0.2-0.3,0.5-0.5,0.9-0.3c2.5,1,4.2,3.9,4,6.5
					c-0.1,2.6-1,5.1-2.2,7.3c-2.5,4.4-5.9,8-9.7,11.1c-3.8,3.1-8.1,5.7-12.7,7.6c-2.3,0.9-4.7,1.7-7.3,2c-1.3,0.2-2.6,0.3-4,0.2
					c-0.7,0-1.4-0.2-2.1-0.3c-0.7-0.2-1.4-0.3-2.1-0.7c-1.4-0.6-2.7-1.7-3.5-3.1c-0.5-0.7-0.7-1.5-0.9-2.2c-0.1-0.8-0.3-1.5-0.2-2.3
					c0.1-3,1.3-5.5,2.6-7.7c1.4-2.2,3-4.1,4.8-5.9c1.8-1.8,3.7-3.4,5.7-4.8c4-2.9,8.4-5.2,13-6.8c2.3-0.8,4.7-1.4,7.2-1.6
					c2.4-0.2,5-0.2,7.4,0.8c0.3,0.1,0.5,0.5,0.4,0.9C378.4,231.6,378,231.8,377.6,231.6C377.6,231.6,377.6,231.6,377.6,231.6z"/>
			</g>
		</g>
		<g>
			<g>
				<path class="st1" d="M349.1,255.6c-4.2-3.5,2.4-11,7.4-14.5c12.7-8.8,22.1-3.4,12.6,7C369.4,240.6,352.8,246.8,349.1,255.6z"/>
			</g>
		</g>
		<path class="st1" d="M333.3,272.5c0,6.3,19.6,9.1,37.5-5.7l-31.4-2C339.4,264.7,333.3,269.3,333.3,272.5z"/>
		<path class="st1" d="M551.5,239.4c3.6-4.2,5.5-6.2,5.5-6.2l9.4,5.2c3.8,1.3,7.9,3.3,11.9,6c4.3,2.9,7.8,6.3,10.3,9.6l8.6,5.5
			c-0.1,0.8-2.6,4.7-2.6,4.7c0,0.1-2.4,4-2.5,4.1c-3.7,5.3-15.9,3.3-27.2-4.6C553.3,255.7,546.9,244.6,551.5,239.4z"/>
		<path class="st1" d="M550.9,238.9l2.8-3.1l2.8-3.1c0.2-0.2,0.6-0.3,0.9-0.2c0.1,0,9.6,4.9,9.6,4.9l-0.2-0.1
			c4.5,1.3,8.8,3.4,12.8,6c4,2.6,7.7,5.6,10.8,9.4c0,0-0.6-0.5-0.6-0.5l8.6,5.5c0.8,0.5,1.2,1.5,1,2.3c-0.1,0.5-0.2,0.6-0.2,0.8
			l-0.2,0.4l-0.4,0.7l-0.7,1.2l-0.7,1.2l-0.4,0.6l-0.2,0.3l-0.1,0.2l-0.1,0.1l-0.1,0.1l-0.1,0.1l-0.2,0.2c-0.3,0.3-0.7,0.6-1.3,0.7
			c-0.6,0.1-1,0-1.3-0.2c-0.1-0.1-0.2-0.1-0.3-0.2l3.2-0.7l-2.3,3.5c-0.3,0.5-0.9,1.4-1.6,1.9c-0.7,0.6-1.5,1.1-2.3,1.4
			c-3.2,1.3-6.3,1.1-9.2,0.6c-5.7-1.1-10.8-3.6-15.5-6.7c-4.6-3.1-8.8-6.8-12.2-11.3c-1.6-2.3-3.1-4.7-4-7.5
			c-0.4-1.4-0.7-2.8-0.5-4.4C549.3,241.6,549.9,240,550.9,238.9z M552.1,240c-1.6,1.8-1.4,4.5-0.5,6.9c0.9,2.4,2.3,4.6,3.9,6.6
			c3.3,4.1,7.5,7.4,12,10.2c4.5,2.7,9.4,4.8,14.4,5.5c2.4,0.3,5,0.3,6.8-0.6c0.4-0.2,0.8-0.5,1.1-0.8c0.3-0.3,0.5-0.6,0.9-1.2l2-3.4
			l3.2-0.7c-0.1-0.1-0.2-0.1-0.3-0.2c-0.3-0.1-0.8-0.3-1.3-0.2c-0.6,0.1-1,0.4-1.3,0.7l-0.1,0.2c0,0,0.1-0.1,0.1-0.1l0.2-0.3
			l0.3-0.5l0.7-1.1l0.6-1.1l0.3-0.5l0.1-0.2c0,0,0-0.1,0,0.1l1,2.3l-8.6-5.5c-0.2-0.2-0.4-0.3-0.6-0.5c-2.5-3.5-5.7-6.6-9.2-9.3
			c-3.5-2.7-7.4-5-11.6-6.6l-0.1,0c0,0-0.1,0-0.1-0.1l-9.2-5.6l0.9-0.1C555.7,235.7,553.9,237.9,552.1,240z"/>
		<g>
			<path class="st3" d="M559.7,231c5-2.4,14.8,0,24,6.4c11,7.6,17,17.9,13.4,23.1c-3.6,5.2-15.4,3.2-26.3-4.4
				c-11-7.6-17-17.9-13.4-23.1C557.9,232.1,558.7,231.4,559.7,231L559.7,231z"/>
		</g>
		<g>
			<g>
				<path class="st1" d="M559.4,230.3c2.4-1,5-1,7.4-0.8c2.5,0.2,4.9,0.8,7.2,1.6c4.6,1.6,9,3.9,13,6.8c2,1.4,3.9,3.1,5.7,4.8
					c1.8,1.8,3.4,3.7,4.8,5.9c1.3,2.2,2.5,4.7,2.6,7.7c0.1,0.7-0.1,1.5-0.2,2.3c-0.2,0.8-0.4,1.5-0.9,2.2c-0.8,1.4-2.1,2.6-3.5,3.1
					c-0.7,0.4-1.4,0.5-2.1,0.7c-0.7,0.1-1.4,0.3-2.1,0.3c-1.4,0.1-2.7,0-4-0.2c-2.6-0.4-5-1.1-7.3-2c-4.6-1.9-8.9-4.5-12.7-7.6
					c-3.8-3.1-7.3-6.7-9.7-11.1c-1.2-2.2-2.2-4.6-2.2-7.3C555.3,234.2,556.9,231.3,559.4,230.3c0.4-0.2,0.8,0,0.9,0.4
					c0.1,0.3,0,0.7-0.3,0.9c-2,1-3,3.1-2.8,5.2c0.2,2.2,1.1,4.3,2.3,6.3c2.4,3.9,5.9,7.2,9.6,10c3.7,2.8,7.9,5.1,12.2,6.7
					c2.2,0.8,4.4,1.3,6.6,1.6c2.2,0.2,4.4,0.1,6-0.7c0.8-0.4,1.4-0.9,1.7-1.6c0.2-0.3,0.3-0.7,0.4-1.1c0-0.4,0.1-0.8,0.1-1.3
					c-0.1-1.9-0.9-3.9-1.9-5.8c-2.2-3.9-5.4-7.4-8.9-10.4c-3.5-3-7.5-5.7-11.8-7.5c-2.2-0.9-4.4-1.7-6.7-2c-2.3-0.3-4.7-0.3-6.7,0.7
					c-0.4,0.2-0.8,0.1-0.9-0.3C558.9,231,559,230.6,559.4,230.3C559.4,230.4,559.4,230.4,559.4,230.3z"/>
			</g>
		</g>
		<g>
			<g>
				<path class="st1" d="M588.5,255.6c4.2-3.5-2.4-11-7.4-14.5c-12.7-8.8-22.1-3.4-12.6,7C568.2,240.6,584.7,246.8,588.5,255.6z"/>
			</g>
		</g>
		<path class="st1" d="M604.3,272.5c0,6.3-19.6,9.1-37.5-5.7l31.4-2C598.2,264.7,604.3,269.3,604.3,272.5z"/>
		<path class="st1" d="M287.9,356.1c0,0,4.1-12.8,18.6-25.6c1-0.9,1.4-2.2,1-3.4c-1.5-4.6-4.4-16.7,6-33.9c0,0-21.8,10.6-28.4,48.4
			C282.5,356.1,287.9,356.1,287.9,356.1z"/>
		<path class="st1" d="M650.3,356.1c0,0-4.1-12.8-18.6-25.6c-1-0.9-1.4-2.2-1-3.4c1.5-4.6,4.4-16.7-6-33.9c0,0,21.8,10.6,28.4,48.4
			C655.7,356.1,650.3,356.1,650.3,356.1z"/>
		<path class="st1" d="M636,448.1c-8.8,56.7-24.1,105.9-97.4,123.8c-4.6,1.1-9.5-0.7-12.4-4.5c-3.7-4.9-7.3-9.9-10.6-15
			c-5.7-8.5-15.7-13-25.9-11.8c-14,1.7-28.1,1.7-42.1,0c-10.2-1.2-20.2,3.3-25.9,11.8c-3.4,5.1-6.9,10.1-10.6,15
			c-2.9,3.8-7.8,5.6-12.4,4.5c-73.2-17.9-88.5-67-97.3-123.7c-16.2-104.7,74.9-131,167.3-131C561.1,317.1,652.2,343.4,636,448.1z"/>
		<g>
			<defs>
				<path id="SVGID_7_" d="M636,448.1c-8.8,56.7-24.1,105.9-97.4,123.8c-4.6,1.1-9.5-0.7-12.4-4.5c-3.7-4.9-7.3-12.5-10.6-17.6
					c-5.7-8.5-15.7-13-25.9-11.8c-14,1.7-28.1,1.7-42.1,0c-10.2-1.2-20.2,3.3-25.9,11.8c-3.4,5.1-6.9,12.7-10.6,17.6
					c-2.9,3.8-7.8,5.6-12.4,4.5c-73.2-17.9-88.5-67-97.3-123.7c-16.2-104.7,74.9-131,167.3-131C561.1,317.1,652.2,343.4,636,448.1z"
					/>
			</defs>
			<clipPath id="SVGID_2_">
				<use xlink:href="#SVGID_7_"  style="overflow:visible;"/>
			</clipPath>
			<g class="st8">
				<path class="st3" d="M558,459.7l0.2-0.1c4.5-2.4,7.1-6,11.1-11.5c0.9-1.2,1.8-2.6,2.9-4c0.5-0.7,1-1.4,1.6-2
					c1.8-2.2,3.6-4.5,4.6-7.2c2.5-6.7,0.4-16.2-1.8-20.5c-0.7-1.4-1.3-1.9-1.6-2l-0.4-0.1l0-0.4c0.2-18.7,1.9-29.1,3.5-39.1
					c0.9-5.8,1.8-11.2,2.3-17.9l0-0.2c0.5-1.3,0.7-21.9-2.7-35.6c-7.7-35.8-28.2-57.5-68.6-72.7c-33.6-13.1-50.3-11.4-80.6,0
					c-31.5,11.7-51.8,28.6-62,51.5c-13,30.1-10.1,51.3-6.8,75.9c1.6,11.7,3.2,23.9,3.4,38.2l0,0.4l-0.4,0.1
					c-0.9,0.3-1.1,0.5-1.7,2.2c-2.3,5.4-4.1,13.8-1.7,20.3c1,2.7,2.8,5,4.5,7.2c0.5,0.7,1.1,1.3,1.6,2c1.1,1.5,2.2,3,3.1,4.3
					c3.7,5.1,6.3,8.8,10.8,11.2l0.2,0.1l0.1,0.2c6.1,16.4,5.7,25.5,5.4,32.8c-0.3,6-0.4,10.4,3.4,16.3l0.1,0.1l0,0.1
					c-0.3,21.3,5.5,26.4,16,35.8c3.9,3.4,8.2,7.3,13.1,12.7c1.7,1.8,3.2,3.7,4.7,5.5c5.1,6.2,9.9,12,18.3,15
					c8.2,2.9,18.7,3.8,28.2,2.4c9.6,1.4,20.1,0.5,28.3-2.4c8-2.8,11.9-7.4,17.8-14.4c4.5-5.3,10-11.8,19.3-19.8
					c0.5-0.4,0.9-0.8,1.4-1.2c6.8-5.8,13.9-11.8,13.7-33.6l0-0.1l0.1-0.1c3.8-5.9,3.6-10.9,3.3-17.3c-0.2-5.1-0.4-10.9,1.2-18.8
					c0.8-3.9,2.2-7.5,3.5-11.1L558,459.7z"/>
				<g>
					<g>
						<path class="st1" d="M468.9,564.5c-4.5,0.8-5,1.6-4.3,1.7c1.5,0.1,3,0.1,4.5,0c8.9-0.1,7.3,1.2,12.4,2.5
							c0.3,0.1,0.4-0.3,0.2-0.4C477.6,565,475,563.4,468.9,564.5z"/>
						<path class="st1" d="M455.7,399.8c0.7-2.8,1.4-5.3,0.6-8.2c-1.6-5.6-7.1-9.2-12.3-11.1c-6.8-2.6-14.3-2.6-21.5-2.1
							c-7.9,0.6-16.5,1-24.2,3c-13.3,3.4-12.3,22.2-11.1,32.6c0.8,6.5,2.9,13.1,8.7,16.8c5.9,3.7,13.1,5.8,20,5.5
							c0.6,0,0.5-0.8,0-0.8c-8.9-1.1-16.3-2.7-21.1-10.3c3.5,3.7,11.7,5.6,16.9,5.7c-0.4-0.6-1.1-0.8-1.8-1
							c-4.6-1.4-7.7-2.1-10.5-5.3c13.6,3.9,24.5-1.7,44.3-8.6c-1.8,2.1-4.5,5.2-6.7,6.4c-0.7,0.4-1.6,0.8-1.8,1.6
							c3.2,1.6,9.8-4,12.4-6.2c-2.7,6.2-9.8,13.9-18.5,17.5c-1.2,0.5-1.2,1.2,0.1,0.9c10.9-3,21.2-13.9,24.2-24.7
							C454.6,407.6,454.7,403.6,455.7,399.8z"/>
						<path class="st1" d="M483,438.2c-7.2-20.3-10-21.4-16.5-20.9c-8.6,0.7-12.5,14.2-13.7,22.7c-2.2,16-3.2,21.7,6.8,22.4
							c0.9,0.1,0.9-1.3,0-1.3c-1.3-0.1-2.3-0.4-3.2-0.8c2,0.7,6.9-0.5,8.4-2.2c0.4,0,0.8-0.1,1.1-0.2c-0.2,1.2-0.8,2.2-1.9,2.6
							c-0.2,0.1-0.2,0.4,0,0.4c3.7,0.5,4-5.7,3.2-7.8c-0.1-0.4-0.5-0.7-0.6-1c-0.8-0.6-0.4-1.2,1-1.7c0.5,0,1,0,1.6,0.1
							c1.4-0.3,1,1.2,0.7,2.7c-1.4,7.8,3.3,9.5,5.3,8.4c0.5-0.3,0.3-1-0.2-1.1c-1.7-0.6-2.7-1.1-3.1-2.5c1.3,1.3,3.5,1.2,5.1,1.6
							c1.2,0.3,2.8,0.5,4.2,0.3c-0.5,0.2-1.1,0.2-1.8,0.2c-0.8,0-0.8,1.2,0,1.2C489.3,460.9,486.3,447.4,483,438.2z"/>
						<path class="st1" d="M519.3,378.8c-7.3-0.6-14.4-1.1-21.7,0.6c-23.9,5.4-19.4,13.1-17.5,23.9c2.4,13.7,6.9,25.5,27.2,31.1
							c0.3,0.1,0.5-0.3,0.2-0.5c-6.3-4-12.9-6-18.2-13c2.1,1.5,8.2,4.5,11.8,5.3c0-0.6-0.5-1-1-1.3c-2.7-1.8-6.8-4.1-8.5-7
							c10.3,7.3,31.3,10.7,49.2,2.9c-4,4.9-6.7,3.8-11.3,7.2c3.7,1.5,10.4-2,13.6-4c-3.8,6.9-12,9.6-19.5,10.1c-1.1,0.1-1.2,1-0.1,1
							c19.4,0.9,23.6-7.7,26.3-19.9C558.2,377.7,530.2,379.7,519.3,378.8z"/>
						<path class="st1" d="M414.3,442.5c-12.5-0.3-16.2-3-24.8-6.3c1.9,1.9,5,4.2,10.2,6.1c23.7,8.9,24.3,0.8,23.3,22.1
							c-0.1,1.6,0.2,4.4,0.4,6c0.2,1.6,1.3,2.6,1.5,4.1c-2.2-14.7,7.4-20.6,4.9-28.1C428.1,441.2,421.5,442.7,414.3,442.5z"/>
						<path class="st1" d="M448.3,446.6c-0.7,2.8-2,10.3-1.1,13.3c1.5,4.6,6.5,6.3,11.6,6C445.1,461.3,450.1,458.8,448.3,446.6z"/>
						<path class="st1" d="M480.7,464.4c2.1,0.8,4.2,0.5,6.3-0.1c0.6-0.2,1.4-0.5,2.1-1.2c1.6-1.7,1.5-6.2,0.8-8.5
							C487.5,461.9,489.8,461.7,480.7,464.4z"/>
						<path class="st1" d="M504.2,446.3c-2.5,7.5,7.1,13.4,4.9,28.1c0.4-2.4,2.3-2.5,1.9-10.1c-1.1-21.4-0.4-13.2,23.3-22.1
							c1.9-0.7,3.8-1.4,5.5-2.5c1.6-1.1,3-1.8,4.7-3.6c-5.1,2-10.6,4.8-16.2,5.6C513.6,443.8,506.2,440.3,504.2,446.3z"/>
						<path class="st1" d="M578.1,319c-6.7-31.4-23.4-55.9-68.9-73.1c-33-12.8-50.1-11.6-80.9,0c-26.8,10-50.6,25.7-62.3,51.8
							c-19.2,44.5-4,69.5-3.5,114.3c-1.2,0.3-1.4,0.9-2.1,2.6c-2.6,6-3.9,14.4-1.7,20.6c1.3,3.5,4,6.4,6.2,9.3
							c5.6,7.5,8.4,12.6,14.1,15.6c11.2,30.2,0.4,36,8.8,49.2c-0.4,29.3,10.9,28.6,29.3,48.9c7.4,8.2,12.3,16.7,23.1,20.6
							c8.4,2.9,19,3.8,28.4,2.4c9.4,1.4,20.1,0.5,28.4-2.4c14.2-5,15.9-15.8,37.3-34.3c7.2-6.3,15.5-11.7,15.2-35.1
							c6.8-10.7,0.9-18.3,4.6-36.2c0.9-4.5,2.6-8.7,4.2-13c5.7-3,8.5-8,14.1-15.6c2.2-3,4.9-5.8,6.2-9.3c3.3-8.9-1.3-22.5-3.7-23.1
							c0.3-29.5,4.4-38.7,5.9-57C581.5,353.7,581.6,332.9,578.1,319z M543.4,508.7c0,0.1-0.5,10.6-0.5,10.6
							c-1,10.3-4.9,14.2-13.4,21.2c0-0.8,0-2.5-0.7-2.1c-1,0.7-1.7,2.2-1.4,3.7c-0.3,0.3-0.6,0.6-1,0.9c0.1-1.4-0.3-5.9-1-4.7
							c-0.7,1.5-1.2,4.2-1.1,6.4c-0.4,0.3-0.7,0.6-1,0.8c1-7.7-0.4-14.5-0.7-12.6c-0.7,4.3-0.7,8.6-1.6,14.9
							c-0.2,0.2-0.5,0.5-0.7,0.7c0.9-5.5-0.1-10.8-0.5-8.9c-0.8,3.6-0.9,7.3-2.3,11.9c-1.8,1.9-17.7,20.4-22.9,20.4
							c-4.1-0.2-7.2-1.3-10.6-3.1c-0.1,0-0.2,0-0.3,0c-0.5,0.3,1.9,3.4,6.6,4.5c-2.5,0.4-4.6-0.1-7.5-1.9c-7-4.3-15.7-5.4-22.8-1
							c-4.6,2.8-12.7,3.5-17.7,1.4c-10.6-4.6-20.8-19.4-27.8-25.7c-16.2-14.6-20.6-12.9-20.6-37.4c-0.4-4.4-5.4-10.4-4-23.6
							c0.9-8.3,0.9-8.3,0.9-13.1c2.1-4.5,8.1-2.1,11.8,0.9c1,6.4-1.4,3.4,0.2,11.7c1.3,7.1,4.5,12.2,10.4,16.4
							c0,7.2,1.5,11.8-0.9,15.1c0,0.1-0.9,1.2-2.2,1.9c-2.8,1.5,6.7,2.2,7.4-10.9c0.1,0,0.2-0.1,0.2-0.1c0.9,1,2.3,1.4,3.6,1.4
							c0,1.5,0.7,6,0.9,8.8c0,0.1,0.1,0.2,0.1,0.2c0.1,0.1,0.3,0,0.3-0.1c0.8-1.6,1-3.6,0.9-5.4c0.7,0.5,1.8,0.9,2.6,0.5
							c0.7,1,0.2,1.2,1.5,2.3c0.8,0.7,2.1,1.3,3.2,1.1c0.1,0.2,0.3,0.3,0.4,0.5c0.9,1.8,2.8,2.7,3.9,2.5c0,0.1,0.1,0.2,0.1,0.3
							c0.7,3.7,1.6,10.3,2.1,8.9c0.6-2,0.7-4.1,0.4-6.2c1.3,0.6,3.1,1.1,4.1,0.1c1.7,4.3,7.7,5.8,10.2,3.6c0.8,1.2,1.8,1.8,3,2.2
							c0.7,1.5,0.5,3.1,0.6,4.7c0,1.4,2-2,1.5-4.5c0.5,0,1-0.1,1.5-0.1c0.2,4.5,0.2,8.2-0.5,12.7c-0.1,0.3,0.3,0.4,0.5,0.1
							c1.9-3.4,2.4-7.9,2.1-12.1c1.9,1.4,3.6,2.3,6.5,1.7c-0.3,1.1-0.6,5.7,0.3,6.3c0.8,0.3,1.6-5.4,1.7-6.3
							c2.9,1.4,6.2-0.3,8.2-2.8c0.8,0.5,1.7,0.7,2.8,0.5c0.9-0.2,1.6-0.9,2.4-1.5c-0.2,0.8-0.4,2.8-0.4,4.2
							c-0.2,8.2,2.1-0.1,2.5-4.7c0.4,0.2,0.8,0.5,1.2,0.6c2.6,1,5.1-1.7,5.8-3.8c2.8,0.2,6.4-0.7,7.7-3.1c2.2,0.7,4.6-1.6,5.6-3.5
							c1.4,0.6,2.5,0.3,3.5-1.3c0,0.5,0,3.9,0.4,4.3c0.9,0.4,1.6-3.6,1.6-4.7c0-0.4,0-0.8,0-1.2c0.8-0.2,1.8-0.7,2.3-1.3
							c0,3,0.4,6.3-0.7,9.6c-0.1,0.3,0.3,0.4,0.4,0.2c2.7-3.2,2.4-8.4,2.2-12.7c1.7-2.3,3.4-0.5,4.7-3.2
							c0.1,14.5,10.9,13.3,7.4,11.7c-5.2-2.7-2.8-9.3-2.8-16.9c15.4-11.2,7.8-15.7,10.9-29.8c2.5-2.5,12.9-3.2,12.1,3.1
							c-0.5,3.8-0.6,4,0.1,10.9C548.7,498.3,543.7,504.3,543.4,508.7z M420.7,488.1c-0.7,3.7-0.1,7.6-1.9,6.5
							c-0.4-0.2-0.6-0.9-0.9-1.6c0.1-2.1,0.3-4.6,0.8-8c1-0.3,1.6,0.2,2.1,1.2C421.1,486.9,420.9,487.4,420.7,488.1z M422.1,500.8
							c-0.2,1-0.6,3.7-0.6,4.7c0,0.1-1.7-0.2-1.9-0.2c-2.7-1.1-1.2-4.1-1-7.1c0.1-0.7,0.9-1,1.3-0.5
							C421,498.6,422.3,499.6,422.1,500.8z M435.2,516c0,0-1.2-0.2-1.3-0.3c-2-1-1.7-4.8-0.3-7.2c1.7,0.5,2.6,0.5,2.2,2.3
							C435.5,512.7,434.9,513.8,435.2,516z M434.9,496.1c-1.8,6.8,1.8,11.1-3.6,7.9c-1.4-2.8-0.3-16.9,2.7-11.5
							c0.4,0.7,1.1,1.4,1.1,2.2C435.2,495.1,435,495.6,434.9,496.1z M431.1,508c-0.3,1.6-0.8,3.4-0.7,4.9c-0.9-0.1-1.7-0.4-2.8-2.3
							c0-1.8,0.2-5.7,1.7-4.7C430.4,506.6,431.3,506.9,431.1,508z M429.3,494.3c-0.1,1.4,0,2.7-0.1,4.1c-0.1,1.2-0.4,2.7-0.2,3.8
							c-0.2-0.1-1-0.2-1.1-0.3c-0.5-0.4-1-0.7-1.5-1.1c-0.1-5.1-0.6-2.8,0.8-11c0-0.1,0.1-0.2,0.2-0.3c0.6-0.3,1-1,1.5-0.6
							c0.5,0.4,0.9,1.5,1,2.1C430.1,492.1,429.4,493.1,429.3,494.3z M425.8,509.6c-2.8,0-2.8-3.7-2.3-6.5c0.1-0.7,0.6-1.2,1.3-0.7
							C428.4,504.8,425.5,505.5,425.8,509.6z M425.4,490.1c-0.8,2.6-1.1,6.4-0.8,9c-0.3-0.3-1.5-1.2-1.8-1.5
							c-0.9-5.2,0-7.2-0.1-10.1c0-0.8,1-0.9,1.5-1.1c0.1,0.7,0.3,1.4,0.6,2C425.1,489,425.6,489.5,425.4,490.1z M441.2,506.8
							c0.2,0.7-0.5,1.3-1.2,1.1c-1.3-0.4-2.5-0.7-2.6-2c-0.1-1.7-0.6-4.7-0.6-6.1c0-1.8,0.2-3.6,0.2-5.4c0-0.7,1.3-1.6,1.9-1.4
							c0.5,0.2,1.1,1.4,1.5,1.8c0.6,0.8,1.3,1.2,1.2,2.1C441.1,500,440.5,503.8,441.2,506.8z M442.6,518.3c0.1,1.8-2.4,0.9-4.1,0.3
							c-0.9-0.5-1.1-1.5-1.3-2.4c-0.5-2,0.2-3.1,0.5-5c0.1-0.6,0.7-1,1.2-0.7C444.1,512.2,442.2,511.1,442.6,518.3z M443.8,496.3
							c0-0.5,0.2-0.9,0.7-1.1c2.2-1,2-0.2,3.4,0.7c0.1,0.1,0.2,0.2,0.2,0.3c0,0.7,0,1.4,0,2.2c-0.1,4.9-1.5,4.7,0.6,11
							c0.2,0.7-0.4,1.3-1.1,1.1c-0.5-0.2-1.2-0.4-2.2-0.7c-1.9-0.7-2.2-6.2-2-8.2C443.7,499.7,443.9,498,443.8,496.3z M452.2,495.7
							c1-0.1,1.7,0.3,2.4,0.8c0.7,0.5,2.8,1.2,2.8,2.2c-0.6,11.9-0.1,12.1-4.9,12.1c-1.4,0-2.2-2.5-2.6-3.8
							c-0.6-2.4,0.1-4.5,0.6-6.9C451.2,497.3,449.8,496.1,452.2,495.7z M458.8,523.4c0,0.5,0,1,0,1.5c-0.5,0.6-2.4,0.4-3.1,0.2
							c-2.7-2.2-1.4-1.6-2.3-4c-1.3-3.1-0.6-2.4-1.2-5.9c-0.1-0.6,0.3-1.1,0.9-1.1C461.8,514.4,456.1,516.6,458.8,523.4z M451,521.8
							c0.2,0.6-0.1,1.2-0.7,1.4c-3.6,1.1-4.5-0.2-5.3-3.5c-0.5-2.3-0.2-3.7-0.3-5.7c0-0.7,0.7-1.3,1.4-1c1,0.4,2,0.7,3.1,0.9
							C452,514.3,449.5,517.5,451,521.8z M459.6,498.6c-0.1-0.6,0.1-1.2,0.7-1.6c3.9-2.7,4.2-1.8,6.5-0.3c0.5,0.3,0.7,0.8,0.7,1.4
							c-0.2,2.7-0.1,5.5-0.1,8.3c-0.1,1.9-0.5,4-0.4,5.9c0.1,2.6-3.6,1.1-6.2,0.1C457.6,511.3,460.4,502.7,459.6,498.6z
							 M467.9,518.5c0.1,1.4,0.9,8.7-0.5,8.8c-3.4,0.1-5.5-1.3-5.7-2.2c-0.7-2.2-2.9-9.8-0.6-9.1c1.8,0.5,3.6,1,5.5,1.1
							C467.3,517.2,467.8,517.8,467.9,518.5z M469,497.5c-0.3-3.8,7.3-1.4,7.5,0.7c0.3,3.4,1.5,5.3,0.8,10.4c-0.6,4.9-2.3,4.2-5.9,5
							C467.4,514.5,469.5,504.8,469,497.5z M469.8,517.6c0-0.6,0.7-0.5,1.2-0.5c3.5-0.5,6-2.1,6-0.4c0.1,5.2-0.5,5.3-0.7,7.9
							c-0.1,1.1-2.1,2.7-3.1,3c-1.2,0.4-3.2,0.4-3.1-1C470.3,523.6,470.5,520.5,469.8,517.6z M478.7,516.5c-0.1-1.8,1.8-0.9,5.2-1.3
							c1.7-0.2-0.3,4.3-0.9,7.6c-0.1,0.1-0.2,0.3-0.3,0.5c-1.6,1.2-1.2,1.8-3.4,1.9c-0.5,0-0.8-0.4-0.7-0.9
							C478.8,523.1,479,519,478.7,516.5z M495.6,497.3c-0.4-1.3,0.6-1.7,1.5-2.7c0.2-0.2,1.1-1.1,1.4-1.1c0.1,0,1.3,0.5,1.4,1.3
							c0,3.3,2.3,10.9-0.2,12.5C491.7,512.3,498.2,505.8,495.6,497.3z M506.2,506.7c-0.1-0.4,0-0.9,0.4-1.2c2.7-2.4,2.9-3.1,2.4,1.7
							c-0.2,1.7-1.3,6.4-3,6.6C506.7,511.4,506.8,509,506.2,506.7z M506.9,490.5c0.2-0.9,0.9-0.7,1.5-0.5c0.4,0.1,0.5,0.4,0.8,0.5
							c0.8,9.2,0.3,4.7,0.5,8.3c0.1,0.8-0.5,1-1.1,1.5c-0.2,0.2-1.1,1.2-1.1,0C508.5,496,506.3,492.9,506.9,490.5z M505.8,502.6
							c-0.9,0.8-2.7,2.8-2.7,1c0.1-1.4-0.5-7.3-1.3-9.6c-0.3-0.8,0.9-2.1,2-1.7c0.4,0.1,0.9,0.1,1.1,0.7
							C506.9,498.6,505.6,498.8,505.8,502.6z M503.8,508c0.2-0.2,0.6-0.1,0.6,0.2c0.5,5-2.1,8.4-3.8,8.7c-0.6,0-0.4-0.8-0.3-1.3
							c0.2-1.5,0.4-3.1,0.4-4.7c0-0.5,0.2-0.9,0.6-1.2C502.2,509.2,503,508.6,503.8,508z M497.8,517.2c-0.3,2.2-5.1,3.7-4.6,2.2
							c0.6-1.9,0.8-4.1,0.8-6.1c0-0.4,0.3-0.7,0.7-0.8C498.5,511.6,499.2,509.9,497.8,517.2z M493.1,508.6c-0.1,0.8-0.7,1.4-1.4,1.5
							c-5.2,0.5-1.1-2-4-12.2c-0.3-1.2,0.9-2,2-2.5c1.5-0.7,3.2,0.7,3.4,1.7C493.7,500.9,493.4,504.7,493.1,508.6z M491.5,514
							c0.2,3,0.4,3.2-0.7,6.8c-0.1,0.2-0.2,0.5-0.4,0.6c-1.1,0.9-2.1,2.4-3.5,2.3c-2.9-0.3,0.2-4-0.2-8.4c0-0.4,0.3-0.8,0.7-1
							C489.4,513.7,491.5,512.6,491.5,514z M486,509.7c-0.1,2.4-3.3,2.1-5.3,2.1c-0.8,0-1.3-0.8-1-1.5c1.2-3.7,1-8.5-0.4-12.2
							c-0.8-2.2,5.7-3.2,6-0.4C485.6,502.7,486.5,499.9,486,509.7z M510.7,502.8c0-0.4,0.1-0.8,0.4-1c5.1-4,2,1,2,3.9
							c-0.3,2-0.7,4.4-2.8,5.2C511.2,508.5,511.1,505.3,510.7,502.8z M513,487.6c0.8-0.8,0.4-0.9,1.5-0.1c1.1,10.9,0.2,9.3-2.6,10.7
							C512.9,490.4,508.9,491.7,513,487.6z M516.1,500.1c-0.1-0.4,0.2-0.9,0.6-1c0.7-0.3,1.5-0.6,2.1-1c0.3-0.2,0.6,0,0.6,0.4
							c-0.2,6.4-1.6,5.7-4,7C515.9,503.6,516.3,502.3,516.1,500.1z M516.2,487.6c-0.1-0.3-0.1-0.7,0.1-1c0.8-0.9,1.8-2.2,2.3-1.8
							c0.6,2.3,0.8,5.4,1,8.3c-0.3,0.1-0.6,0.4-0.7,0.8c-0.2,0.9-1.6,2.5-1.9,1.6C516.6,494.8,517.4,490.6,516.2,487.6z M569,405.5
							c-14.8,0.9-1.7-5.7-10.7-25.8c-3-6.9-7.1-13.3-4.9-21.7c1.9-7.2,5.9-10.8,6.5-29.3c0-1.2-1.1-1.5-1.2-0.3
							c-0.1,1.9-0.3,3.2-0.6,5.3c0,13.1-12.3,20.2-8.2,37c1,4.1,2.7,7.4,4.2,11.1c8.3,20.9-7.4,36.1,18.2,35.3
							c1.3,7,3.2,13.9-1.3,20.2c-13.4,18.6-15.3,21.7-33.6,19.2c-4.1-0.5-10.6-1.8-16.3,0.1c-1.8,0.6-4.4,3-2.7,2.6
							c0.9-0.2,6.3-0.9,7.2-1c-12.2,12.2-9.5,14.3-7.5,23.6c-1.2-0.1-2.3,1-3.3,2c-1.7-1.3-3.8,1.1-4.7,3c-1.2-1.6-3.6-1.9-5-0.1
							c-0.2,0.3-0.5,1.5-0.7,2.2c-1.3-0.7-2.9,0.3-3.7,1.5c-2-1.8-4-1.1-5.4,0.9c-0.3,0.5-0.4,1.2-0.7,1.7c-0.9-1.2-3-1.8-4.2-1.7
							c-1.5,0-2.7,0.9-3.8,1.8c-0.7-2.3-0.8-2.9-1.3-5.7c-0.1-0.4-0.5-4-0.9-4.1c-0.2-0.1-0.4,0-0.4,0.2c-1,2.9-1,6.5-0.4,8.5
							c-4-2.2-4.6,2.4-7.4,0.8c-2-1.1-3.4-2.5-5.8-1.6c-1,0.3-1.7,1-2.3,1.7c-3.3-3.3-6.9-2-10.2,1.2c-1.4-1.3-3.6-3.2-5.6-3
							c-0.9,0.1-1.6,1.1-2.4,1.1c-2,0.2-3.3-4-7,0c-0.1-0.1-0.2-0.1-0.4-0.1c-1-1.7-2.9-3.8-4.9-3.2c-0.5,0.2-1,0.5-1.4,0.9
							c-0.1,0-0.2,0.1-0.2,0.1c-0.5-1.4-2.4-2.8-4.2-2c-1.2-3-2.7-4.1-5.2-2.3c0-0.5-0.8-1.6-0.9-2c-0.5-1.3-1.8-0.5-3,0.2
							c-0.3-1.3-2.1-2.8-3.5-2.3c1.6-7.5,4.8-11.8-7.3-23.2c-0.1-0.1-0.2-0.2-0.3-0.3c4.8,0.5,7.4,1,7.4,1c1.2,0.1-1.4-2.1-3-2.7
							c-2.4-0.8-4.9-1-7.5-1c-2.6,0-4.1,0.3-8.7,0.9c-17.9,2.5-19.9-0.2-33.6-19.2c-4.5-6.3-2.6-13.2-1.3-20.2
							c10,0.3,15.4-0.6,15.6-10.8c0,0,0-0.3,0-0.3c0.5-13.2-2.1-16.5,4.8-28.8c13.9-24.4-5.6-33.2-6.9-48.8c-0.1-1.1-1.8-1.2-1.8,0
							c0.5,18.8,17.5,23.9,5.4,44.9c-7.5,13.8-7.5,18.2-6.7,29.2c-1.3,3.2-3.9,4-7.2,3.8c3.8-19.4-6.9-30.1-7.5-55.6
							c-1.5-50,19.7-81,63.4-98.9c30.7-12.6,54.6-17.6,95.4,2.8c32.8,15,48.1,36.2,53.8,63C583.6,365,565.7,381.2,569,405.5z"/>
					</g>
				</g>
			</g>
			<path class="st9" d="M306.3,474.3c24.3-52.3,93-70,162.4-70s138.2,17.7,162.4,70c1.9-8.5,3.5-17.3,4.9-26.2
				c16.2-104.7-74.9-131-167.3-131s-183.5,26.2-167.3,131C302.9,457,304.4,465.8,306.3,474.3z"/>
		</g>
		<g>
			<path class="st3" d="M330.1,510.3c-18.7-67.8-6.9-111.2,41.5-136.8c19.9-10.5,9.5-38.8-13-29.3
				C276.3,378.8,314.3,486.1,330.1,510.3z"/>
		</g>
		<g>
			<path class="st3" d="M573,539.7c-4.4,3.5-0.7,11.3,5.7,7.3c39.9-24.6,51.5-69.9,51.4-109.9C622.6,477.3,612.9,508.2,573,539.7z"
				/>
		</g>
		
			<ellipse transform="matrix(0.9745 -0.2245 0.2245 0.9745 -66.9098 99.7657)" class="st3" cx="405.3" cy="344.1" rx="16.3" ry="14.9"/>
		<path class="st3" d="M565.6,550.3c1.2,2.3,0.1,5.1-2.5,6.4c-2.5,1.3-5.5,0.5-6.6-1.7c-1.2-2.3-0.1-5.1,2.5-6.4
			C561.5,547.3,564.5,548.1,565.6,550.3z"/>
	</g>
	<ellipse class="st3" cx="468.7" cy="720.6" rx="10.5" ry="15.8"/>
	<ellipse class="st3" cx="114.2" cy="317" rx="23.5" ry="35.5"/>
	<ellipse class="st3" cx="815.3" cy="317" rx="23.5" ry="35.5"/>
	<ellipse class="st3" cx="212.7" cy="432" rx="10.5" ry="15.8"/>
	<ellipse class="st3" cx="719.3" cy="432" rx="10.5" ry="15.8"/>
</g>
</svg>
